<?xml version="1.0" encoding="utf-8"?>
<!-- Generator: Adobe Illustrator 16.0.0, SVG Export Plug-In . SVG Version: 6.00 Build 0)  -->
<!DOCTYPE svg PUBLIC "-//W3C//DTD SVG 1.1//EN" "http://www.w3.org/Graphics/SVG/1.1/DTD/svg11.dtd">
<svg version="1.1" id="Capa_1" xmlns="http://www.w3.org/2000/svg" xmlns:xlink="http://www.w3.org/1999/xlink" x="0px" y="0px"
	 width="290.984px" height="239.987px" viewBox="0 0 290.984 239.987" enable-background="new 0 0 290.984 239.987"
	 xml:space="preserve">
<path fill="#14788B" d="M170.147,45.351c-45.227,0-81.89,36.663-81.89,81.902c0,45.227,36.663,81.902,81.89,81.902
	c45.232,0,81.917-36.676,81.917-81.902C252.064,82.014,215.38,45.366,170.147,45.351 M196.167,89.827h-1.439
	c-3.531,0.011-7.061-0.101-10.577,0.04c-4.837,0.151-8.394,1.986-8.561,8.032c-0.132,4.405-0.188,14.539-0.188,14.539
	s11.355,0.014,16.266,0c1.283-0.016,2.519,0,3.929,0c-0.927,7.02-1.795,13.744-2.677,20.558h-17.367v51.336h-21.281v-51.438H136.82
	v-20.442h17.533v-1.543c0-4.114-0.07-8.228,0.014-12.341c0.067-2.615,0.185-5.281,0.636-7.855c1.101-6.24,3.977-11.521,9.195-15.299
	c4.568-3.283,9.793-4.615,15.303-4.727c3.63-0.086,7.257,0.1,10.857,0.25c1.965,0.096,3.948,0.373,5.809,0.57V89.827z
	 M7.522,109.158c-0.131-3.238,1.252-6.225,3.586-7.77c2.39-1.568,5.052-2.655,8.152-3.324c5.185-1.096,10.604-0.789,15.858-0.468
	c1.675,0.081,3.272,0.165,4.836,0.206c0.897,0.027,1.904,0.041,2.989,0.041c7.532,0.029,17.831,0.056,22.204,6.271
	c1.194,1.708,1.265,3.71,0.187,5.486c-1.925,3.253-5.727,5.451-11.647,6.699c-3.531,0.754-7.269,1.07-10.27,1.321
	c-1.071,0.097-2.052,0.167-2.919,0.262c-1.536,0.171-3.072,0.393-4.697,0.599c-7.742,1.057-16.498,2.239-24.136-1.957
	C9.197,115.164,7.647,112.412,7.522,109.158 M54.443,40.096c0.058-2.64,1.154-5.129,3.017-6.824
	c1.127-1.041,2.509-1.775,3.968-2.139c3.307-0.863,6.88,0.167,9.298,2.652c2.022,2.086,5.608,6.049,9.075,9.883
	c3.432,3.81,6.977,7.742,8.929,9.729c1.662,1.711,2.544,4.045,2.474,6.563c-0.083,2.596-1.167,5.029-3.001,6.724
	c-1.125,1.017-2.445,1.74-3.926,2.113c-3.246,0.849-6.79-0.182-9.271-2.682L56.959,46.658C55.27,44.959,54.374,42.625,54.443,40.096
	 M49.023,159.554l15.906-6.033c0.974-0.358,1.994-0.554,3.051-0.554c3.954,0,7.624,2.599,8.908,6.321
	c1.647,4.769-0.854,9.982-5.697,11.858l-15.851,6.17c-0.981,0.378-2.022,0.569-3.086,0.569c-3.947,0-7.714-2.666-8.999-6.379
	C41.581,166.654,44.11,161.401,49.023,159.554"/>
</svg>
