<?xml version="1.0" encoding="utf-8"?>
<!-- Generator: Adobe Illustrator 16.0.0, SVG Export Plug-In . SVG Version: 6.00 Build 0)  -->
<!DOCTYPE svg PUBLIC "-//W3C//DTD SVG 1.1//EN" "http://www.w3.org/Graphics/SVG/1.1/DTD/svg11.dtd">
<svg version="1.1" id="Capa_1" xmlns="http://www.w3.org/2000/svg" xmlns:xlink="http://www.w3.org/1999/xlink" x="0px" y="0px"
	 width="313.183px" height="153.046px" viewBox="0 0 313.183 153.046" enable-background="new 0 0 313.183 153.046"
	 xml:space="preserve">
<g>
	<path fill-rule="evenodd" clip-rule="evenodd" fill="#99C9B9" d="M38.185,153c-12.461,0-24.922-0.006-37.383,0.017
		c-0.672,0.001-0.803-0.113-0.802-0.686C0.02,101.785,0.02,51.239,0,0.692C-0.001,0.12,0.13,0.007,0.802,0.008
		C104.665,0.024,208.531,0.024,312.393,0c0.843,0,0.789,0.285,0.789,0.776c-0.007,50.686-0.005,101.371-0.005,152.057
		c-3.055,0.002-6.109,0-9.163,0.008c-0.345,0.001-0.723-0.1-1.017,0.16c-0.064,0-0.129,0-0.195,0
		c0.027-1.055,0.066-2.109,0.074-3.164c0.04-4.246,0.072-8.494,0.104-12.741c0.023-1.19,0.075-2.38,0.067-3.569
		c-0.017-2.574,0.209-5.146,0.048-7.722c0.187-0.47,0.094-0.949,0.063-1.427c0.016-0.359,0.039-0.719,0.043-1.078
		c0.061-3.265-0.036-6.531,0.218-9.791c0.07-0.153,0.152-0.304,0.196-0.463c1.171-4,2.174-8.029,2.973-12.097
		c1.479-7.524,2.506-15.075,1.7-22.718c-0.317-3.011-0.986-5.969-2.607-8.696c-1.791-3.014-4.456-5.046-8.563-5.385
		c-1.037-0.094-2.074-0.114-3.11,0.009c-0.677,0.083-1.368,0.116-2.023,0.266c-0.769,0.175-1.136,0.039-1.483-0.641
		c-2.376-4.64-6.338-7.96-11.892-9.702c-8.407-2.635-16.59-1.852-24.452,1.66c-2.654,1.185-5.2,2.543-7.83,3.769
		c-2.581,1.204-5.314,1.847-8.273,1.249c-2.535-0.513-4.651-1.711-6.606-3.122c-1.207-0.869-2.346-1.803-3.616-2.787
		c-0.025,0.323-0.05,0.534-0.054,0.747c-0.026,2.664,0.442,5.273,1.264,7.835c1.504,4.69,4.182,8.786,8.381,12.128
		c2.021,1.609,4.341,2.822,6.703,3.998c-0.062,0.13-0.106,0.268-0.185,0.387c-2.637,4.016-4.2,8.345-5.253,12.837
		c-0.728,3.114-1.238,6.263-1.384,9.42c-0.173,3.778-0.295,7.571,0.148,11.351c0.092,2.328,0.182,4.657,0.273,6.985
		c0.04,1.336,0.079,2.671,0.12,4.005c0.103,3.332,0.214,6.664,0.297,9.998c0.024,0.965,0.215,1.939-0.125,2.895
		c-0.681,1.324-1.409,2.627-2.367,3.824c-0.576,0.527-1.106,1.105-1.743,1.572c-2.54,1.852-4.918,1.848-7.465,0.017
		c-0.447-0.321-0.866-0.678-1.256-1.051c-2.396-2.291-4.027-4.989-5.507-7.753c-2.895-5.404-5.042-11.041-6.915-16.756
		c-0.179-0.547-0.449-0.618-0.973-0.438c-0.19-0.407-0.375-0.817-0.574-1.224c-0.098-0.199-0.203-0.482-0.519-0.393
		c-0.661,0.188-0.611-0.331-0.853-0.563c0.011-1.012-0.412-1.936-0.806-2.865c0.127-0.102,0.133-0.195-0.023-0.279
		c-0.015-0.133-0.027-0.266-0.044-0.4c-0.146-1.046-0.409-2.109,0.629-2.972c1.145-1.036,1.722-2.334,2.328-3.624
		c0.332-0.708,0.461-1.451,0.34-2.188c-0.361-2.197-2.586-3.783-5.389-3.91c-0.225-0.234-0.483-0.441-0.577-0.761
		c-0.45-1.54-1.047-3.044-1.644-4.546c-2.028-5.117-4.815-9.914-8.236-14.449c-0.294-0.391-0.59-0.526-1.123-0.387
		c-1.918,0.506-3.881,0.861-5.81,1.344c-5.717,1.428-11.477,2.73-17.226,4.063c-0.648,0.149-0.71,0.313-0.206,0.674
		c0.499,0.355,0.361,0.579-0.212,0.734c-0.714,0.193-1.415,0.42-2.122,0.627c-0.427,0.126-1.08,0.167-1.177,0.482
		c-0.121,0.4,0.554,0.541,0.893,0.752c0.643,0.396,0.392,0.578-0.139,0.783c-0.854,0.333-1.714,0.664-2.554,1.024
		c-0.268,0.114-0.718,0.151-0.675,0.509c0.032,0.26,0.392,0.332,0.647,0.456c2.637,1.272,5.119,2.752,7.526,4.31
		c2.49,1.611,4.837,3.377,7.026,5.284c0.575,0.501,1.326,0.919,1.469,1.704c-0.123,0.195-0.252,0.389-0.37,0.59
		c-1.217,2.063-0.972,3.807,0.823,5.16c0.468,0.355,0.627,0.693,0.643,1.205c0.042,1.307,0.62,2.406,2.059,2.998
		c0.592,0.245,0.886,0.59,1.092,1.08c0.684,1.635,2.084,2.41,4.085,2.441c0.51,0.201,1.025,0.193,1.54,0.01
		c0.266-0.004,0.529-0.006,0.795-0.01c0.39,0.352,0.596,0.794,0.764,1.239c0.195,0.515,0.489,0.67,1.067,0.372
		c0.388-0.199,0.799-0.398,1.268-0.141c0.068,0.358,0.103,0.732,0.576,0.902c0.245,0.863,0.865,1.576,1.314,2.355
		c-0.531,0.696,0.093,1.264,0.289,1.878c-0.524,0.135-0.555,0.396-0.406,0.822c0.792,2.271,1.708,4.503,2.755,6.694
		c2.849,5.957,6.244,11.646,11.369,16.451c3.756,3.529,8.141,6.152,13.876,6.715c1.167,0.088,2.336,0.085,3.503-0.002
		c1.716-0.129,3.363-0.472,4.905-1.143c1.37-0.494,2.594-1.186,3.717-2.016c0.348,0.227,0.177,0.555,0.196,0.834
		c0.084,1.176,0.137,2.352,0.197,3.527c-0.065,0-0.131,0-0.196,0c-0.293-0.264-0.672-0.159-1.018-0.159
		c-31.513-0.006-63.03-0.007-94.545-0.003c-0.38,0-0.788-0.088-1.125,0.162c-22.182,0-44.364,0-66.545,0
		c-0.173-1.605-0.348-3.212-0.521-4.819c-0.037-0.739-0.076-1.48-0.11-2.221c1.342-0.021,1.344-0.021,0.961-1.155
		c-0.866-2.568-1.775-5.127-2.586-7.709c-0.435-1.383-1.062-2.721-0.883-4.24c0.374-3.188,0.577-6.392,0.863-9.588
		c0.152-1.709,0.332-3.416,0.504-5.167c0.397,0.157,0.455,0.423,0.603,0.626c2.139,2.921,4.747,5.463,8.265,7.213
		c4.433,2.206,8.943,2.469,13.415,0.104c3.098-1.641,5.261-4.05,7.058-6.707c3.08-4.557,4.885-9.521,6.336-14.597
		c0.065-0.228,0.104-0.433-0.057-0.636c-0.018-0.543,0.393-1.07,0.082-1.625c0.194-0.097,0.292-0.246,0.332-0.43
		c0.965,0.348,1.739,0.282,2.174-0.672c0.158-0.349,0.58-0.287,0.934-0.285c0.223,0.041,0.446,0.082,0.668,0.123
		c2.475,0.456,3.883-0.011,5.316-1.781c0.159-0.197,0.35-0.292,0.605-0.373c1.554-0.492,2.716-1.291,2.886-2.826
		c0.043-0.402,0.45-0.59,0.733-0.852c0.276,0.033,0.481-0.041,0.571-0.285l0.011-0.005c0.245-0.023,0.48-0.06,0.519-0.325
		c0.03-0.016,0.056-0.037,0.075-0.063c1.146-0.879,1.332-2.997,0.376-4.282c-0.008-0.126-0.012-0.255-0.02-0.382
		c1.85-1.185,3.803-2.236,5.8-3.235c3.517-1.762,7.225-3.177,11.04-4.393c0.829-0.265,0.68-0.571,0.15-0.919
		c-0.595-0.389-1.231-0.726-1.851-1.091c-0.941-0.556-0.938-0.563,0.079-0.979c0.229-0.093,0.539-0.147,0.577-0.401
		c0.053-0.32-0.311-0.406-0.538-0.525c-0.672-0.34-1.361-0.651-2.051-0.962c-0.505-0.228-0.755-0.457-0.086-0.774
		c0.432-0.205,0.351-0.42-0.009-0.613c-0.222-0.118-0.453-0.222-0.687-0.316c-2.995-1.223-5.996-2.428-8.98-3.666
		c-3.334-1.384-6.662-2.781-9.97-4.21c-0.624-0.27-0.978-0.181-1.414,0.237c-1.214,1.162-2.405,2.334-3.574,3.53
		c-2.218,2.27-4.125,4.717-5.949,7.222c-1.274,1.75-2.263,3.628-3.432,5.425c-0.389,0.006-0.786-0.021-1.17,0.025
		c-1.981,0.24-3.985,0.592-4.65,2.488c-0.772,2.209-0.064,4.275,1.332,6.189c0.529,1.122,0.059,2.219-0.109,3.324
		c-0.097,0.354-0.192,0.709-0.287,1.063c-0.01,0.1-0.019,0.199-0.028,0.301c-0.413,0.705-0.518,1.489-0.787,2.233
		c-0.782,0.101-0.498,0.749-0.777,1.106c-0.494-0.127-0.676,0.077-0.785,0.47c-0.448,1.596-0.888,3.194-1.404,4.776
		c-1.121,3.435-2.284,6.865-4.532,9.918c-2.594,3.525-5.708,3.895-9.385,1.166c-2.057-1.528-3.798-3.314-5.189-5.293
		c-1.014-1.44-2.276-2.281-4.194-2.61c-2.255-0.386-4.389-1.201-6.664-1.557c-0.716-0.345-1.507-0.507-2.295-0.688
		c-0.003-0.418,0.026-0.838-0.017-1.254c-0.063-0.598,0.18-0.838,0.912-0.996c4.315-0.936,8.093-2.733,11.17-5.496
		c3.981-3.572,6.499-7.797,7.528-12.674c0.952-4.515,0.593-9.031,0.2-13.555c-0.072-0.84-0.567-1.692-0.016-2.539
		c0.438-0.094,0.598-0.29,0.521-0.708c-0.23-1.269-0.512-2.526-0.96-3.752c-2.585-7.108-7.812-12.056-16.22-14.313
		c-5.466-1.466-10.997-1.274-16.513-0.188c-4.606,0.907-9.035,2.19-12.709,4.874c-0.563,0.411-0.949,0.427-1.604,0.156
		c-5.328-2.205-10.59-2.372-15.696,0.52c-3.808,2.157-6.257,5.071-6.798,9.03c-0.365,2.662,0.036,5.283,0.582,7.898
		c0.578,2.768,1.33,5.509,1.548,8.329c0.367,4.775-1.789,7.952-6.873,9.957c-1.045,0.412-2.132,0.748-3.202,1.119
		c0.052,0.102,0.062,0.166,0.104,0.197c0.176,0.124,0.356,0.244,0.545,0.352c2.052,1.175,4.271,2.014,6.692,2.459
		c6.095,1.123,12.232-1.08,15.208-5.559c2.387-3.597,2.292-7.355,0.642-11.135c-0.764-1.746-1.613-3.467-2.104-5.292
		c-0.577-2.141-0.839-4.291-0.149-6.449c0.748-2.347,3.019-4.411,5.311-4.812c-0.763,1.664-1.307,3.349-1.579,5.09
		c-0.273,1.743-0.39,3.495-0.302,5.255c0.343,6.735,2.556,13.047,5.953,19.083c0.778,1.382,1.652,2.72,2.705,3.967
		c0.228,0.27,0.381,0.426,0.658,0.072c0.274,0.033,0.485,0.167,0.647,0.344c1.797,1.961,3.905,3.635,6.388,4.93
		c1.925,1.004,3.916,1.924,6.164,2.309c0.583,0.1,0.85,0.361,0.846,0.85c-0.004,0.639-0.018,1.277-0.028,1.916
		c-0.797,0.235-1.595,0.469-2.391,0.702c-1.738,0.467-3.491,0.897-5.211,1.407c-1.996,0.592-4.133,0.876-5.958,1.834
		c-3.162,1.654-6.011,3.641-8.396,6.082c-5.573,5.703-7.028,12.046-3.939,19.055c1.903,4.322,5.078,7.941,8.664,11.334
		c0.453,0.429,0.7,0.125,1.034-0.043c0.191,0.498,0.588,0.814,1.178,0.959c0.295,0.532,0.952,0.764,1.364,1.201
		C38.436,150.868,38.31,151.934,38.185,153z M184.969,69.783c0.042-2.061-0.311-3.918-0.181-5.786
		c0.044-0.628-0.319-0.804-0.962-0.669c-1.544,0.324-3.083,0.665-4.626,0.994c-0.447,0.096-0.454,0.341-0.32,0.641
		c1.05,2.365,2.104,4.728,3.151,7.094c0.137,0.311,0.354,0.431,0.75,0.369c0.416-0.063,0.839-0.07,1.258-0.12
		c0.589-0.068,0.953-0.312,0.934-0.877C184.953,70.816,184.969,70.202,184.969,69.783z M121.216,55.252c-0.785,0-1.567,0-2.35,0
		c-0.459,0-0.641,0.181-0.563,0.583c0.422,2.191,0.808,4.388,1.258,6.576c0.243,1.187,0.728,1.458,2.086,1.387
		c0.419-0.022,0.613-0.135,0.729-0.51c0.753-2.455,0.981-4.99,1.614-7.462c0.107-0.417-0.058-0.574-0.526-0.573
		C122.713,55.255,121.964,55.252,121.216,55.252z M194.751,72.795c0.079-0.042,0.239-0.092,0.351-0.181
		c2.211-1.723,4.419-3.447,6.621-5.177c0.4-0.315,0.049-0.488-0.222-0.637c-1.04-0.569-2.13-1.079-3.118-1.707
		c-0.684-0.435-1.024-0.253-1.39,0.265c-1.374,1.955-2.759,3.904-4.145,5.853c-0.086,0.122-0.183,0.227-0.124,0.382
		C192.785,71.752,194.468,72.797,194.751,72.795z M168.288,68.855c-0.223-0.012-0.353,0.1-0.467,0.247
		c-0.688,0.874-1.359,1.757-2.077,2.611c-0.394,0.468-0.366,0.744,0.259,1.047c2.254,1.093,4.496,2.209,6.714,3.356
		c1.012,0.522,1.189-0.294,1.662-0.658c0.455-0.349,0.458-0.654,0.028-1.051c-1.872-1.733-3.709-3.489-5.565-5.234
		C168.69,69.029,168.534,68.88,168.288,68.855z M130.961,66.579c0.1-0.046,0.213-0.094,0.323-0.147
		c2.316-1.126,4.599-2.306,6.964-3.351c0.971-0.427,0.576-0.772,0.151-1.164c-0.684-0.632-1.474-1.183-2.125-1.835
		c-0.467-0.468-0.759-0.453-1.239-0.034c-1.686,1.476-3.41,2.918-5.11,4.384c-0.228,0.198-0.643,0.373-0.354,0.757
		C129.951,65.696,130.213,66.292,130.961,66.579z M112.289,64.256c-0.049-0.083-0.085-0.162-0.14-0.229
		c-1.532-1.894-2.894-3.886-4.515-5.729c-0.294-0.336-0.55-0.418-0.949-0.121c-0.76,0.565-1.528,1.12-2.319,1.653
		c-0.653,0.441-0.614,0.804,0.022,1.243c1.894,1.303,3.764,2.629,5.638,3.953c0.491,0.348,0.954,0.243,1.43-0.01
		C111.813,64.823,112.19,64.654,112.289,64.256z"/>
	<path fill-rule="evenodd" clip-rule="evenodd" fill="#272727" d="M238.801,153c-0.061-1.176-0.113-2.352-0.197-3.527
		c-0.02-0.279,0.151-0.607-0.196-0.834c0.056-0.244,0.181-0.49,0.164-0.729c-0.203-2.566-0.095-5.139-0.198-7.705
		c-0.036-0.917,0.008-1.871-0.355-2.771c0.34-0.955,0.149-1.93,0.125-2.895c-0.083-3.334-0.194-6.666-0.297-9.998
		c0.353-1.277,0.164-2.563,0.09-3.846c-0.002-0.056-0.137-0.105-0.21-0.159c-0.092-2.328-0.182-4.657-0.273-6.985
		c1.481,0.409,3.052,0.565,4.48,1.131c-0.425,2.678-0.854,5.354-1.271,8.034c-0.091,0.593-0.265,1.187-0.091,1.79
		c-0.026,0.499-0.104,0.957,0.684,1.176c2.319,0.645,4.611,1.352,6.916,2.034c-0.287,1.188-0.588,2.376-0.853,3.568
		c-0.132,0.593-0.271,1.202,0.12,1.778c-0.806,0.494,0.053,0.664,0.293,0.774c1.46,0.689,2.95,1.337,4.449,1.962
		c0.688,0.288,1.258,0.817,2.105,0.797c0.059,0.047,0.12,0.096,0.176,0.144c0.08,0.569,0.576,0.524,1.046,0.519
		c0.997,0.146,1.709,0.756,2.55,1.156c0.627,0.297,1.212,0.676,2.046,0.787c-0.68-1.281-1.647-2.299-2.394-3.428
		c-0.66-1.003-1.666-1.854-1.898-3.053c0.853-2.652,1.692-5.309,2.565-7.957c0.154-0.459,0.203-0.852-0.195-1.234
		c-1.3-1.249-1.524-2.621-0.619-4.115c0.015-0.024,0.016-0.055,0.02-0.082c0.063-0.436,0.302-0.597,0.854-0.555
		c1.623,0.123,3.25,0.214,4.878,0.269c0.708,0.024,1,0.294,1.346,0.825c0.851,1.303,0.792,2.428-0.419,3.506
		c-0.582,0.518-0.583,1.088-0.359,1.764c0.885,2.674,1.71,5.365,2.557,8.049c-0.635,0.939-1.556,1.691-2.281,2.568
		c-0.989,1.189-2.269,2.193-3.041,3.518c-0.014,0.017-0.023,0.033-0.033,0.051c0.01-0.018,0.021-0.033,0.033-0.051
		c0.43-0.029,0.765-0.26,1.136-0.41c0.77-0.313,1.383-0.904,2.304-0.938c0.451,0.042,0.824-0.133,1.197-0.307
		c1.543-0.712,3.084-1.422,4.706-2.004c1.417-0.508,2.803-1.086,4.18-1.672c0.478-0.203,1.076-0.457,0.535-1.075
		c0.114-1.165-0.03-2.327-0.099-3.489c0.128-0.009,0.265,0.004,0.383-0.031c2.129-0.621,4.258-1.249,6.386-1.878
		c1.454-0.431,1.452-0.433,0.985-1.732c0.233-0.214,0.173-0.45,0.105-0.702c-0.209-0.779-0.421-1.563-0.589-2.35
		c-0.374-1.738-1.094-3.416-1.276-5.188c7.357-0.527,14.622-1.494,21.709-3.32c0.073,0.41,0.218,0.824,0.208,1.232
		c-0.07,2.865,0.178,5.732-0.124,8.596c-0.021,0.203,0.09,0.309,0.297,0.369c0.031,0.478,0.124,0.957-0.062,1.428
		c-0.354,0.284-0.292,0.656-0.293,1.014c-0.001,3.131-0.002,6.264,0.001,9.395c0.001,0.3-0.064,0.615,0.176,0.882
		c-0.032,4.247-0.064,8.495-0.104,12.741c-0.008,1.055-0.047,2.109-0.074,3.164c-3.262,0-6.521,0-9.786,0
		c-0.956-9.203-1.911-18.406-2.867-27.609c-0.363,1.666-0.263,3.332-0.417,4.993c-0.22,2.354,0.022,4.726-0.21,7.093
		c-0.211,2.133-0.038,4.279-0.175,6.424c-0.189,3.027-0.379,6.064-0.246,9.1C272.334,153,255.567,153,238.801,153z M262.286,142.654
		c0.009-0.853-0.796-1.507-1.886-1.53c-0.881-0.02-1.765,0.689-1.805,1.449c-0.045,0.871,0.901,1.671,1.987,1.678
		C261.527,144.258,262.276,143.555,262.286,142.654z M262.277,148.948c-0.018-0.838-1.008-1.646-1.972-1.609
		c-0.749,0.029-1.725,0.934-1.718,1.594c0.008,0.861,0.953,1.594,2.003,1.553C261.521,150.451,262.296,149.744,262.277,148.948z"/>
	<path fill-rule="evenodd" clip-rule="evenodd" fill="#2F3030" d="M74.851,148.181c0.174,1.607,0.349,3.214,0.521,4.819
		c-12.396,0-24.792,0-37.188,0c0.125-1.066,0.251-2.133,0.377-3.201c0.297,0.158,0.589,0.323,0.892,0.473
		c1.329,0.656,2.672,0.797,3.98-0.017c0.438-0.273,0.807-0.63,1.203-0.949c0.907-0.411,1.932-0.434,2.895-0.458
		c4.409-0.11,8.778-0.633,13.173-0.859c3.944-0.203,7.886-0.418,11.809-0.835C73.562,147.042,74.516,147.102,74.851,148.181z"/>
	<path fill-rule="evenodd" clip-rule="evenodd" fill="#181818" d="M289.101,153c-0.133-3.035,0.057-6.072,0.246-9.1
		c0.137-2.145-0.036-4.291,0.175-6.424c0.232-2.367-0.01-4.738,0.21-7.093c0.154-1.661,0.054-3.327,0.417-4.993
		c0.956,9.203,1.911,18.406,2.867,27.609C291.711,153,290.407,153,289.101,153z"/>
	<path fill-rule="evenodd" clip-rule="evenodd" fill="#EAEDE0" d="M141.917,153c0.337-0.25,0.745-0.162,1.125-0.162
		c31.515-0.004,63.032-0.003,94.545,0.003c0.346,0,0.725-0.104,1.018,0.159C206.375,153,174.147,153,141.917,153z"/>
	<path fill-rule="evenodd" clip-rule="evenodd" fill="#EAEDE0" d="M302.997,153c0.294-0.26,0.672-0.159,1.017-0.16
		c3.054-0.008,6.108-0.006,9.163-0.008c-0.079,0.359-0.401,0.156-0.589,0.157C309.392,153.004,306.193,153,302.997,153z"/>
	<path fill-rule="evenodd" clip-rule="evenodd" fill="#272727" d="M244.125,79.557c-2.362-1.176-4.683-2.389-6.703-3.998
		c-4.199-3.342-6.877-7.438-8.381-12.128c-0.821-2.563-1.29-5.171-1.264-7.835c0.004-0.213,0.028-0.423,0.054-0.747
		c1.271,0.984,2.409,1.918,3.616,2.787c1.955,1.411,4.071,2.609,6.606,3.122c2.959,0.599,5.692-0.045,8.273-1.249
		c2.63-1.226,5.176-2.584,7.83-3.769c7.862-3.512,16.045-4.295,24.452-1.66c5.554,1.742,9.516,5.062,11.892,9.702
		c0.348,0.68,0.715,0.816,1.483,0.641c0.655-0.15,1.347-0.183,2.023-0.266c1.037,0.221,2.073,0.233,3.11-0.009
		c4.106,0.339,6.771,2.372,8.563,5.385c1.621,2.728,2.29,5.686,2.607,8.696c0.806,7.643-0.221,15.193-1.7,22.718
		c-0.799,4.067-1.802,8.097-2.973,12.097c-0.044,0.159-0.126,0.31-0.196,0.463c-0.102,0.11-0.203,0.223-0.304,0.336l-0.065-0.029
		l0.024-0.057c-0.162-0.143-0.354-0.232-0.591-0.242c-0.852-0.307-1.524-0.836-2.195-1.352c-3.951-3.035-6.804-6.789-9.48-10.654
		c-1.236-1.787-2.409-3.604-3.454-5.564c1.233,0.18,2.363,0.257,3.504,0.159c1.926-0.163,2.89-1.142,2.749-2.804
		c-0.055-0.646-0.25-1.258-0.57-1.845c-0.891-1.631-2.335-2.079-4.237-1.335c-1.129,0.441-2.075,1.104-3.058,1.822
		c-0.08-0.155-0.136-0.248-0.176-0.344c-1.29-3.15-2.601-6.293-3.846-9.455c-0.228-0.582-0.504-0.717-1.173-0.597
		c-2.711,0.488-5.45,0.818-8.203,1.062c-6.811,0.602-13.592,0.604-20.313-0.713C249.294,81.362,246.698,80.499,244.125,79.557z"/>
	<path fill-rule="evenodd" clip-rule="evenodd" fill="#2F3030" d="M36.02,147.639c-0.334,0.168-0.581,0.472-1.034,0.043
		c-3.586-3.393-6.761-7.012-8.664-11.334c-3.089-7.009-1.634-13.352,3.939-19.055c2.386-2.441,5.234-4.428,8.396-6.082
		c1.825-0.958,3.962-1.242,5.958-1.834c1.72-0.51,3.473-0.94,5.211-1.407c-0.277,2.395-0.556,4.788-0.849,7.308
		c0.947-0.4,1.757-0.744,2.567-1.086c1.052-0.445,1.606-0.301,2.099,0.584c1.063,1.908,2.102,3.827,3.163,5.736
		c0.185,0.33,0.293,0.713,0.678,0.979c1.217-2.228,2.408-4.421,3.61-6.609c0.563-1.016,1.082-1.158,2.298-0.645
		c0.771,0.327,1.542,0.654,2.455,1.039c-0.312-2.547-0.601-4.926-0.892-7.304c2.275,0.355,4.409,1.171,6.664,1.557
		c1.918,0.329,3.181,1.17,4.194,2.61c1.392,1.979,3.133,3.765,5.189,5.293c3.677,2.729,6.791,2.359,9.385-1.166
		c2.248-3.053,3.411-6.483,4.532-9.918c0.517-1.582,0.956-3.181,1.404-4.776c0.109-0.393,0.291-0.597,0.785-0.47
		c1.576,0.412,3.144,0.852,4.729,1.229c2.462,0.587,4.863,1.356,7.379,1.772c0.16,0.203,0.122,0.408,0.057,0.636
		c-1.451,5.075-3.256,10.04-6.336,14.597c-1.797,2.657-3.96,5.066-7.058,6.707c-4.472,2.365-8.982,2.103-13.415-0.104
		c-3.518-1.75-6.126-4.292-8.265-7.213c-0.147-0.203-0.205-0.469-0.603-0.626c-0.172,1.751-0.352,3.458-0.504,5.167
		c-0.286,3.196-0.489,6.399-0.863,9.588c-0.179,1.52,0.448,2.857,0.883,4.24c0.811,2.582,1.72,5.141,2.586,7.709
		c0.383,1.135,0.381,1.135-0.961,1.155c-8.998,0.005-17.993,0.015-26.988-0.001c-0.927-0.003-1.877,0.191-2.79-0.173
		c-0.334-0.133-0.396,0.196-0.526,0.372c-0.817-0.598-1.604-1.238-2.659-1.537c-0.19-0.444-0.394-0.901-1.062-0.418
		C39.142,145.341,37.584,146.493,36.02,147.639z M39.074,141.79c0.714-1.912,1.405-3.7,2.049-5.502
		c0.309-0.869,0.854-1.689,0.76-2.653c-0.518-5.333-1.029-10.665-1.53-15.999c-0.043-0.462-0.195-0.542-0.629-0.242
		c-2.795,1.929-5.223,4.122-6.662,6.986c-1.751,3.487-1.468,6.951,0.285,10.379C34.693,137.389,36.657,139.649,39.074,141.79z
		 M58.935,140.837c0.002-0.697-0.676-1.331-1.429-1.34c-0.857-0.009-1.671,0.662-1.648,1.362c0.021,0.703,0.674,1.248,1.51,1.266
		C58.244,142.139,58.935,141.575,58.935,140.837z M58.937,133.038c-0.015-0.725-0.728-1.309-1.571-1.287
		c-0.79,0.018-1.499,0.625-1.499,1.281c-0.001,0.733,0.777,1.365,1.65,1.342C58.292,134.352,58.949,133.735,58.937,133.038z
		 M57.456,126.57c0.819-0.017,1.491-0.59,1.481-1.267c-0.008-0.713-0.725-1.338-1.537-1.342c-0.812-0.004-1.551,0.642-1.533,1.339
		C55.887,126.034,56.581,126.589,57.456,126.57z M107.274,105.958c0.019-0.601-0.502-1.107-1.163-1.129
		c-0.693-0.023-1.337,0.508-1.298,1.115c0.039,0.618,0.464,0.963,1.181,1.016C106.687,107.012,107.255,106.555,107.274,105.958z
		 M105.01,108.297c-0.925,0.004-1.477,0.441-1.411,1.031c0.069,0.631,0.467,1.041,1.257,1.026c0.764-0.015,1.231-0.362,1.216-1.036
		C106.051,108.657,105.589,108.327,105.01,108.297z M34.682,144.372c-0.076-0.318-0.286-0.57-0.767-0.539
		c-0.466,0.029-0.726,0.293-0.699,0.662c0.024,0.365,0.308,0.621,0.774,0.603C34.46,145.079,34.65,144.804,34.682,144.372z
		 M36.24,146.057c-0.032-0.419-0.315-0.605-0.77-0.578c-0.413,0.025-0.668,0.264-0.668,0.602c0.003,0.389,0.322,0.611,0.756,0.623
		C36.047,146.717,36.225,146.432,36.24,146.057z"/>
	<path fill-rule="evenodd" clip-rule="evenodd" fill="#5C331E" d="M38.2,96.92c-0.277,0.354-0.431,0.197-0.658-0.072
		c-1.053-1.247-1.927-2.585-2.705-3.967c-3.397-6.036-5.61-12.348-5.953-19.083c-0.088-1.76,0.028-3.512,0.302-5.255
		c0.272-1.741,0.816-3.426,1.579-5.09c-2.292,0.401-4.563,2.465-5.311,4.812c-0.689,2.159-0.428,4.308,0.149,6.449
		c0.49,1.825,1.34,3.546,2.104,5.292c1.65,3.779,1.745,7.538-0.642,11.135c-2.976,4.479-9.113,6.682-15.208,5.559
		c-2.421-0.445-4.641-1.284-6.692-2.459c-0.188-0.107-0.369-0.228-0.545-0.352c-0.043-0.031-0.053-0.096-0.104-0.197
		c1.07-0.371,2.157-0.707,3.202-1.119c5.084-2.005,7.24-5.182,6.873-9.957c-0.218-2.82-0.97-5.562-1.548-8.329
		c-0.546-2.615-0.947-5.236-0.582-7.898c0.541-3.959,2.99-6.874,6.798-9.03c5.106-2.892,10.368-2.725,15.696-0.52
		c0.655,0.271,1.041,0.255,1.604-0.156c3.674-2.684,8.103-3.967,12.709-4.874c5.516-1.087,11.047-1.279,16.513,0.188
		c8.408,2.257,13.635,7.205,16.22,14.313c0.448,1.226,0.729,2.484,0.96,3.752c0.076,0.418-0.083,0.614-0.521,0.708
		c-0.516,0.052-1.032,0.085-1.548,0.158c-4.413,0.621-8.866,0.893-13.328,0.854c-7.697-0.065-15.336-0.727-22.864-2.148
		c-0.719-0.136-0.801,0.061-0.813,0.589c-0.057,2.507-0.147,5.013-0.237,7.519c-0.051,1.478-0.056,1.478-1.736,1.072
		c-0.124-0.031-0.249-0.069-0.376-0.091c-1.876-0.319-2.871,0.312-3.014,1.944c-0.034,0.44-0.011,0.893,0.064,1.33
		c0.236,1.353,1.456,2.064,3.034,1.793c0.459-0.08,0.914-0.184,1.458-0.294c-0.114,0.567-0.194,1.03-0.299,1.486
		C41.813,89.118,40.267,93.092,38.2,96.92z"/>
	<path fill-rule="evenodd" clip-rule="evenodd" fill="#FCD8BB" d="M303.074,113.758l-0.024,0.057l0.065,0.029
		c0.151,0.305-0.183,0.255-0.338,0.336c-7.087,1.826-14.352,2.793-21.709,3.32c-0.115,0.01-0.23,0.02-0.346,0.029
		c-2.079-0.029-4.151,0.009-6.23,0.145c-2.499,0.161-4.999-0.069-7.496-0.162c-1.476-0.055-2.938-0.042-4.431-0.239
		c-2.124-0.28-4.28-0.431-6.423-0.683c-2.036-0.241-4.085-0.372-6.129-0.678c-2.064-0.309-4.104-0.713-6.164-1.033
		c-0.493-0.075-1.053-0.426-1.568,0.003c-0.117-0.067-0.233-0.134-0.349-0.2c-1.429-0.565-2.999-0.722-4.48-1.131
		c-0.443-3.779-0.321-7.572-0.148-11.351c0.146-3.157,0.656-6.306,1.384-9.42c1.053-4.492,2.616-8.821,5.253-12.837
		c0.078-0.119,0.123-0.257,0.185-0.387c2.573,0.941,5.169,1.805,7.906,2.34c6.721,1.317,13.502,1.314,20.313,0.713
		c2.753-0.243,5.492-0.573,8.203-1.062c0.669-0.12,0.945,0.015,1.173,0.597c1.245,3.162,2.556,6.305,3.846,9.455
		c0.04,0.096,0.096,0.188,0.176,0.344c0.982-0.718,1.929-1.381,3.058-1.822c1.902-0.744,3.347-0.296,4.237,1.335
		c0.32,0.587,0.516,1.198,0.57,1.845c0.141,1.662-0.823,2.641-2.749,2.804c-1.141,0.098-2.271,0.021-3.504-0.159
		c1.045,1.961,2.218,3.777,3.454,5.564c2.677,3.865,5.529,7.619,9.48,10.654c0.671,0.516,1.344,1.045,2.195,1.352
		C302.644,113.663,302.798,113.819,303.074,113.758z M259.334,99.065c-3.659-0.023-7.277,0.32-10.877,0.86
		c-0.413,0.062-0.75,0.106-0.676,0.603c0.376,2.495,1.284,4.811,3.496,6.547c3.433,2.696,7.522,2.979,11.685,1.697
		c4.028-1.24,5.886-4.096,6.617-7.574c0.155-0.737-0.04-1.077-0.952-1.267C265.567,99.293,262.472,99.035,259.334,99.065z
		 M274.414,94.225c-0.007-0.964-0.294-1.813-0.746-2.307c-0.768-0.836-1.689-0.811-2.369,0.068
		c-0.786,1.019-0.682,3.182,0.202,4.139c0.701,0.757,1.718,0.725,2.343-0.087C274.291,95.459,274.377,94.795,274.414,94.225z
		 M247.01,93.807c-0.024-0.791-0.188-1.609-0.857-2.283c-0.602-0.6-1.436-0.613-2.031-0.049c-1.11,1.047-1.003,3.584,0.192,4.58
		c0.662,0.551,1.433,0.5,2.002-0.143C246.852,95.309,246.994,94.602,247.01,93.807z"/>
	<path fill-rule="evenodd" clip-rule="evenodd" fill="#FCDABA" d="M38.2,96.92c2.066-3.828,3.613-7.803,4.581-11.938
		c0.104-0.456,0.185-0.919,0.299-1.486c-0.544,0.11-0.999,0.214-1.458,0.294c-1.578,0.271-2.798-0.44-3.034-1.793
		c-0.075-0.438-0.099-0.89-0.064-1.33c0.143-1.633,1.138-2.264,3.014-1.944c0.127,0.021,0.252,0.06,0.376,0.091
		c1.681,0.405,1.686,0.405,1.736-1.072c0.09-2.506,0.181-5.012,0.237-7.519c0.012-0.528,0.094-0.725,0.813-0.589
		c7.528,1.422,15.167,2.083,22.864,2.148c4.462,0.039,8.915-0.233,13.328-0.854c0.516-0.073,1.032-0.105,1.548-0.158
		c-0.552,0.846-0.057,1.698,0.016,2.539c0.393,4.524,0.752,9.041-0.2,13.555c-1.029,4.877-3.547,9.102-7.528,12.674
		c-3.077,2.763-6.854,4.561-11.17,5.496c-0.732,0.158-0.975,0.398-0.912,0.996c0.043,0.416,0.014,0.836,0.017,1.254
		c-1.644,2.979-3.296,5.953-4.72,9.016c-0.094,0.205-0.158,0.467-0.463,0.486c-0.321,0.02-0.399-0.254-0.507-0.445
		c-0.45-0.803-0.796-1.643-1.219-2.455c-0.525-1.01-1.214-1.947-1.646-3.006c-0.503-1.241-1.249-2.411-1.89-3.611
		c0.011-0.639,0.024-1.277,0.028-1.916c0.004-0.488-0.263-0.75-0.846-0.85c-2.248-0.385-4.239-1.305-6.164-2.309
		c-2.482-1.295-4.591-2.969-6.388-4.93C38.686,97.087,38.475,96.954,38.2,96.92z M63.434,97.78c3.135,0,5.538-1.686,6.156-4.316
		c0.227-0.966,0.154-1.045-1.028-1.047c-3.386-0.004-6.77-0.004-10.154-0.003c-1.28,0.001-1.458,0.208-1.141,1.298
		C57.962,96.089,60.521,97.779,63.434,97.78z M54.846,81.649c-0.021-0.947-0.074-1.785-0.627-2.518
		c-0.582-0.77-1.534-0.797-2.17-0.077c-0.923,1.046-0.939,3.88-0.025,4.958c0.664,0.781,1.592,0.762,2.211-0.056
		C54.793,83.219,54.809,82.377,54.846,81.649z M73.953,81.514c-0.006,1.143,0.154,1.805,0.595,2.415
		c0.624,0.864,1.822,0.891,2.317-0.028c0.82-1.539,0.843-3.15-0.01-4.688c-0.53-0.953-1.722-0.894-2.361,0.039
		C74.012,79.957,73.97,80.731,73.953,81.514z"/>
	<path fill-rule="evenodd" clip-rule="evenodd" fill="#272727" d="M211.792,116.849c0.523-0.18,0.794-0.108,0.973,0.438
		c1.873,5.715,4.021,11.352,6.915,16.756c1.479,2.764,3.11,5.462,5.507,7.753c0.39,0.373,0.809,0.729,1.256,1.051
		c2.547,1.831,4.925,1.835,7.465-0.017c0.637-0.467,1.167-1.045,1.743-1.572c0.102,0.109,0.299,0.228,0.286,0.326
		c-0.167,1.391-0.266,2.795-0.571,4.162c-0.366,1.627-0.458,3.271-0.675,4.908c-1.542,0.671-3.189,1.014-4.905,1.143
		c-1.167-0.225-2.336-0.228-3.503,0.002c-5.735-0.563-10.12-3.186-13.876-6.715c-5.125-4.806-8.521-10.494-11.369-16.451
		c-1.047-2.191-1.963-4.424-2.755-6.694c-0.148-0.426-0.118-0.688,0.406-0.822C203.087,119.763,207.458,118.351,211.792,116.849z
		 M206.697,129.579c-0.158-0.58-0.429-1.005-1.206-1.023c-0.749-0.02-1.173,0.3-1.27,0.9c-0.08,0.488,0.644,1.131,1.209,1.096
		C206.137,130.508,206.484,130.096,206.697,129.579z M203.731,125.391c-0.716,0.019-1.334,0.515-1.295,1.02
		c0.049,0.631,0.519,0.941,1.225,0.97c0.582,0.024,1.328-0.637,1.209-1.103C204.74,125.741,204.327,125.404,203.731,125.391z
		 M201.754,122.189c-0.635,0.083-1.12,0.356-1.089,0.954c0.034,0.589,0.492,1.014,1.173,1.02c0.675,0.004,1.182-0.339,1.141-0.998
		C202.938,122.538,202.489,122.235,201.754,122.189z"/>
	<path fill-rule="evenodd" clip-rule="evenodd" fill="#F9D8BB" d="M191.075,114.51c-2.001-0.031-3.401-0.807-4.085-2.441
		c-0.206-0.49-0.5-0.835-1.092-1.08c-1.438-0.592-2.017-1.691-2.059-2.998c-0.016-0.512-0.175-0.85-0.643-1.205
		c-1.795-1.354-2.04-3.098-0.823-5.16c0.118-0.201,0.247-0.395,0.369-0.59c0.372-0.32,0.832-0.58,1.044-1.023
		c0.196-0.084,0.393-0.17,0.589-0.254c0.453-0.469,0.971-0.799,1.747-0.684c0.198,0.031,0.347-0.113,0.408-0.29
		c0.102-0.116,0.209-0.235,0.313-0.353c0.801-0.131,1.7,0.316,2.423-0.293c0.331-0.018,0.664-0.034,0.994-0.052
		c0.267,0.237,0.531,0.219,0.793-0.005c0.132,0.012,0.26,0.023,0.394,0.035c0.286,0.533,0.845,0.233,1.283,0.304
		c1.33,0.558,1.872,1.571,1.493,2.906c-0.104,0.37-0.147,0.644,0.344,0.788c0.141,0.053,0.283,0.104,0.425,0.155l-0.025-0.024
		c0.585,0.496,1.234,0.93,1.382,1.713c0.142,0.754,0.63,1.232,1.585,1.475c1.634,0.413,2.215,3.22,0.666,4.152
		c-0.414,0.249-1.018,0.035-1.268,0.498c-0.699,0.424-1.483,0.664-2.322,0.786c-0.295,0.149-0.575,0.333-0.943,0.331
		c-0.104-0.01-0.208-0.023-0.313-0.035c-0.128,0.012-0.263,0.007-0.382,0.039c-1.305,0.355-1.347,0.506-0.739,1.548
		c0.324,0.556,0.754,1.095,0.777,1.757c-0.266,0.004-0.529,0.006-0.795,0.01C192.102,114.516,191.588,114.512,191.075,114.51z"/>
	<path fill-rule="evenodd" clip-rule="evenodd" fill="#F9D8BB" d="M122.949,95.383c-0.283,0.262-0.69,0.449-0.733,0.852
		c-0.17,1.535-1.332,2.334-2.886,2.826c-0.256,0.081-0.446,0.176-0.605,0.373c-1.434,1.771-2.842,2.237-5.316,1.781
		c-0.222-0.041-0.445-0.082-0.668-0.123c-0.24-0.614-0.094-1.119,0.529-1.529c0.168-0.111,0.252-0.316,0.377-0.479
		c0.392-0.507,0.252-0.845-0.46-0.926c-0.596-0.066-1.029-0.268-1.28-0.754c-0.186-0.349-0.58-0.301-0.938-0.279l0.012,0.002
		c-0.229-0.459-0.647-0.668-1.219-0.668c-0.062-0.049-0.123-0.096-0.185-0.144c0.052-0.462-0.398-0.491-0.729-0.653
		c-0.572-0.28-1.067-0.58-0.882-1.303c0.331-1.27,0.986-2.222,2.633-2.414c0.375-0.045,0.689-0.147,0.808-0.504
		c0.339-1.029,1.269-1.459,2.381-1.704c0.119-0.026,0.391,0.051,0.246-0.212c0.128-0.141,0.117-0.299,0.113-0.47
		c-0.04-1.869,1.136-2.811,3.303-2.698c1.025,0.055,1.922,0.46,2.889,0.674c0.454,0.002,0.594,0.451,1.002,0.518
		c0.341,0.131,0.683,0.26,1.024,0.39c0.259,0.202,0.521,0.403,0.78,0.606c0.188,0.284,0.401,0.549,0.776,0.676
		c0.033,0.35,0.298,0.584,0.56,0.82c0.008,0.127,0.012,0.256,0.02,0.382c-0.036,0.072-0.124,0.163-0.102,0.214
		c0.642,1.396,0.332,2.738-0.274,4.068c-0.02,0.025-0.045,0.047-0.075,0.063c-0.272-0.008-0.483,0.057-0.519,0.325l-0.011,0.005
		C123.261,95.092,123.017,95.108,122.949,95.383z"/>
	<path fill-rule="evenodd" clip-rule="evenodd" fill="#EAEDE0" d="M186.531,98.785c-0.062,0.177-0.21,0.321-0.408,0.29
		c-0.776-0.115-1.294,0.215-1.747,0.684c0.449-0.361,0.008-0.574-0.188-0.83c-2.357-3.097-5.948-5.194-8.77-7.923
		c-0.979-0.948-2.267-1.666-3.429-2.472c-0.261-0.181-0.524-0.452-0.944-0.282c-0.83,0.336-1.662,0.673-2.597,1.054
		c5.761,3.027,10.872,6.533,15.338,10.707c-0.212,0.443-0.672,0.703-1.044,1.023c-0.142-0.785-0.893-1.203-1.468-1.704
		c-2.189-1.907-4.536-3.673-7.026-5.284c-2.407-1.558-4.89-3.037-7.526-4.31c-0.256-0.124-0.615-0.196-0.647-0.456
		c-0.043-0.357,0.407-0.395,0.675-0.509c0.84-0.36,1.699-0.691,2.554-1.024c0.53-0.205,0.781-0.387,0.139-0.783
		c-0.339-0.211-1.014-0.352-0.893-0.752c0.097-0.315,0.75-0.356,1.177-0.482c0.707-0.207,1.408-0.434,2.122-0.627
		c0.573-0.155,0.711-0.379,0.212-0.734c-0.504-0.361-0.442-0.524,0.206-0.674c5.749-1.332,11.509-2.635,17.226-4.063
		c1.929-0.482,3.892-0.838,5.81-1.344c0.533-0.14,0.829-0.004,1.123,0.387c3.421,4.535,6.208,9.332,8.236,14.449
		c0.597,1.502,1.193,3.006,1.644,4.546c0.094,0.319,0.353,0.526,0.577,0.761c-0.605,0.029-1.183-0.117-1.819-0.061
		c-1.33,0.119-2.685,0.048-4.029,0.053c0.607-0.229,1.262-0.248,1.909-0.311c0.206-0.02,0.499,0.084,0.591-0.164
		c0.114-0.312,0.18-0.403,0.427-0.057c0.3,0.422,0.867,0.303,1.223,0.193c0.392-0.12,0.058-0.49-0.025-0.729
		c-2.08-6.173-5.189-11.943-9.238-17.353c-0.422-0.563-0.789-0.653-1.484-0.487c-4.985,1.193-9.981,2.357-14.974,3.533
		c-1.699,0.401-3.396,0.808-5.226,1.242c0.412,0.324,0.695,0.551,0.982,0.773c4.731,3.672,8.869,7.777,12.275,12.402
		c0.479,0.648,0.927,0.936,1.773,0.67c-0.723,0.609-1.622,0.162-2.424,0.293c-2.456-3.526-5.801-6.445-8.936-9.502
		c-1.092-1.064-2.391-1.973-3.592-2.955c-0.244-0.199-0.476-0.362-0.858-0.237c-0.746,0.245-1.505,0.464-2.231,0.687
		c0.015,0.238,0.182,0.289,0.309,0.371c5.19,3.375,9.854,7.205,13.75,11.688C185.663,98.918,186.041,98.91,186.531,98.785z"/>
	<path fill-rule="evenodd" clip-rule="evenodd" fill="#EAEDE0" d="M123.146,88.545c-0.26-0.203-0.521-0.404-0.78-0.606
		c4.634-3.667,9.844-6.62,15.533-9.03c-0.381-0.425-0.898-0.502-1.263-0.762c-0.642-0.46-1.164-0.394-1.895-0.018
		c-2.894,1.494-5.46,3.363-8.146,5.093c-1.938,1.25-3.741,2.674-5.255,4.327c-0.408-0.066-0.548-0.516-1.003-0.518
		c4.364-4.235,9.523-7.644,15.2-10.586c-0.163-0.095-0.257-0.164-0.365-0.208c-5.73-2.397-11.468-4.786-17.191-7.194
		c-0.48-0.203-0.711-0.018-0.99,0.235c-4.969,4.509-9.14,9.493-12.292,15.082c-0.372,0.004-0.741,0.008-1.111,0.012
		c1.169-1.797,2.157-3.675,3.432-5.425c1.824-2.505,3.731-4.952,5.949-7.222c1.169-1.195,2.36-2.368,3.574-3.53
		c0.437-0.418,0.79-0.507,1.414-0.237c3.308,1.429,6.636,2.826,9.97,4.21c2.984,1.237,5.985,2.443,8.98,3.666
		c0.233,0.095,0.465,0.199,0.687,0.316c0.359,0.192,0.44,0.408,0.009,0.613c-0.669,0.317-0.419,0.546,0.086,0.774
		c0.689,0.311,1.379,0.622,2.051,0.962c0.228,0.119,0.591,0.205,0.538,0.525c-0.038,0.254-0.348,0.309-0.577,0.401
		c-1.018,0.415-1.021,0.423-0.079,0.979c0.619,0.365,1.256,0.702,1.851,1.091c0.529,0.348,0.679,0.654-0.15,0.919
		c-3.815,1.216-7.523,2.631-11.04,4.393c-1.997,0.999-3.95,2.051-5.8,3.235c-0.262-0.236-0.526-0.471-0.561-0.82
		c4.797-3.18,10.145-5.507,15.776-7.404c-0.17-0.318-0.517-0.398-0.737-0.596c-1.011-0.902-1.946-0.795-3.242-0.225
		c-1.894,0.834-3.361,2.175-5.267,2.96c-0.411,0.169-0.799,0.376-1.193,0.573C127.021,85.646,125.161,87.182,123.146,88.545z"/>
	<path fill-rule="evenodd" clip-rule="evenodd" fill="#F9D8BB" d="M201.033,98.424c1.345-0.005,2.699,0.066,4.029-0.053
		c0.637-0.057,1.214,0.09,1.819,0.061c2.803,0.127,5.027,1.713,5.389,3.91c0.121,0.736-0.008,1.479-0.34,2.188
		c-0.606,1.29-1.184,2.588-2.328,3.624c-0.874,0.36-1.13,0.06-1.185-0.696c-0.076-1.045-0.256-2.086-0.458-3.119
		c-0.045-0.229,0.101-0.688-0.315-0.669c-0.285,0.013-0.83,0.007-0.904,0.47c-0.154,0.426-0.872,0.573-0.76,1.129
		c-0.919,1.109-2.186,1.707-3.753,1.867c-0.632,0.064-1.078-0.17-1.549-0.528c-1.535-1.167-2.125-2.698-2.46-4.349
		c-0.008-0.303-0.021-0.607-0.019-0.911C198.232,99.836,199.269,98.77,201.033,98.424z"/>
	<path fill-rule="evenodd" clip-rule="evenodd" fill="#F2F2F1" d="M52.217,107.268c0.641,1.2,1.387,2.37,1.89,3.611
		c0.433,1.059,1.121,1.996,1.646,3.006c0.423,0.813,0.769,1.652,1.219,2.455c0.107,0.191,0.186,0.465,0.507,0.445
		c0.305-0.02,0.369-0.281,0.463-0.486c1.424-3.063,3.076-6.037,4.72-9.016c0.788,0.182,1.579,0.344,2.295,0.688
		c0.291,2.378,0.58,4.757,0.892,7.304c-0.913-0.385-1.685-0.712-2.455-1.039c-1.216-0.514-1.735-0.371-2.298,0.645
		c-1.202,2.188-2.394,4.382-3.61,6.609c-0.385-0.266-0.493-0.648-0.678-0.979c-1.062-1.909-2.1-3.828-3.163-5.736
		c-0.492-0.885-1.047-1.029-2.099-0.584c-0.811,0.342-1.62,0.686-2.567,1.086c0.293-2.52,0.571-4.913,0.849-7.308
		C50.622,107.737,51.42,107.503,52.217,107.268z"/>
	<path fill-rule="evenodd" clip-rule="evenodd" fill="#F9D8BB" d="M103.588,84.372c0.37-0.004,0.739-0.008,1.111-0.012
		c0.458,0.115,0.912,0.318,1.372,0.004c0.094-0.063,0.203-0.107,0.306-0.16c0.397,0.886,1.508,0.664,2.243,1.036
		c1.706,0.864,2.227,1.755,1.837,3.462c-0.038,0.16-0.02,0.33-0.027,0.494c-0.207,0.277-0.543,0.537-0.596,0.833
		c-0.131,0.735-0.732,1.204-1.177,1.76c-1.162,1.457-2.908,1.596-4.542,0.56c-0.765-0.482-0.916-1.152-1.3-1.766
		c-0.043-0.215-0.025-0.447-0.261-0.6c0.02-0.291-0.036-0.539-0.466-0.558l-0.053,0.05c-0.208-0.238-0.565-0.631-0.743-0.157
		c-0.317,0.839-0.963,1.58-1.046,2.479c-0.063,0.657-0.257,1.185-1.147,1.278c-1.396-1.914-2.104-3.98-1.332-6.189
		c0.665-1.896,2.669-2.248,4.65-2.488C102.802,84.351,103.199,84.377,103.588,84.372z"/>
	<path fill-rule="evenodd" clip-rule="evenodd" fill="#272727" d="M44.436,146.159c0.131-0.176,0.192-0.505,0.526-0.372
		c0.913,0.364,1.863,0.17,2.79,0.173c8.995,0.016,17.99,0.006,26.988,0.001c0.034,0.74,0.073,1.481,0.11,2.221
		c-0.335-1.079-1.289-1.14-2.338-1.027c-3.923,0.417-7.864,0.632-11.809,0.835c-4.395,0.227-8.764,0.749-13.173,0.859
		c-0.963,0.024-1.987,0.047-2.895,0.458C45.416,148.217,45.378,147.168,44.436,146.159z"/>
	<path fill-rule="evenodd" clip-rule="evenodd" fill="#FCD8BB" d="M209.041,111.804c0.394,0.931,0.816,1.854,0.806,2.866
		c0.103,0.636-0.157,0.967-0.927,1.214c-2.193,0.706-4.346,1.505-6.496,2.31c-1.297,0.488-2.531,1.123-4.024,1.045
		c-0.449-0.779-1.069-1.492-1.314-2.355c0.601-0.621,1.452-0.916,2.264-1.256c3.168-1.326,6.34-2.646,9.511-3.967
		C208.92,111.708,208.98,111.756,209.041,111.804z"/>
	<path fill-rule="evenodd" clip-rule="evenodd" fill="#BFDDD1" d="M184.969,69.783c0,0.418-0.016,1.033,0.004,1.646
		c0.02,0.565-0.345,0.809-0.934,0.877c-0.419,0.05-0.842,0.056-1.258,0.12c-0.396,0.062-0.613-0.059-0.75-0.369
		c-1.047-2.366-2.102-4.729-3.151-7.094c-0.134-0.3-0.127-0.545,0.32-0.641c1.543-0.329,3.082-0.67,4.626-0.994
		c0.643-0.134,1.006,0.042,0.962,0.669C184.658,65.865,185.011,67.723,184.969,69.783z"/>
	<path fill-rule="evenodd" clip-rule="evenodd" fill="#BFDDD1" d="M121.216,55.252c0.748,0,1.497,0.002,2.248,0
		c0.469-0.001,0.634,0.156,0.526,0.573c-0.633,2.472-0.861,5.008-1.614,7.462c-0.116,0.375-0.311,0.487-0.729,0.51
		c-1.358,0.072-1.843-0.2-2.086-1.387c-0.45-2.188-0.836-4.385-1.258-6.576c-0.077-0.402,0.104-0.583,0.563-0.583
		C119.648,55.252,120.431,55.252,121.216,55.252z"/>
	<path fill-rule="evenodd" clip-rule="evenodd" fill="#F9D8BB" d="M109.633,102.049c-0.04,0.184-0.138,0.333-0.331,0.43
		c-1.722,0.153-3.213-0.682-4.884-0.862c-1.009-0.11-2.061-0.565-3.131-0.779c-1.149-0.23-2.321-0.397-3.399-0.842
		c0.27-0.744,0.374-1.528,0.787-2.233c0.133-0.092,0.167-0.189,0.028-0.301c0.095-0.354,0.19-0.708,0.287-1.063
		c0.345,0.023,0.401-0.188,0.481-0.412c0.135-0.371,0.353-0.369,0.716-0.143c2.726,1.682,5.486,3.324,8.191,5.029
		C108.859,101.176,109.583,101.375,109.633,102.049z"/>
	<path fill-rule="evenodd" clip-rule="evenodd" fill="#BFDDD1" d="M194.751,72.795c-0.283,0.002-1.966-1.043-2.026-1.202
		c-0.059-0.155,0.038-0.26,0.124-0.382c1.386-1.949,2.771-3.898,4.145-5.853c0.365-0.519,0.706-0.7,1.39-0.265
		c0.988,0.628,2.078,1.138,3.118,1.707c0.271,0.148,0.622,0.321,0.222,0.637c-2.202,1.73-4.41,3.454-6.621,5.177
		C194.99,72.703,194.83,72.754,194.751,72.795z"/>
	<path fill-rule="evenodd" clip-rule="evenodd" fill="#F9D8BB" d="M44.436,146.159c0.942,1.01,0.98,2.059,0.201,3.147
		c-0.396,0.319-0.765,0.676-1.203,0.949c-1.309,0.813-2.651,0.673-3.98,0.017c-0.303-0.149-0.595-0.314-0.892-0.473
		c-0.412-0.438-1.069-0.669-1.364-1.201c-0.066-0.434,0.225-0.809,0.523-1.039c1.313-1.014,2.697-1.963,4.056-2.938
		C42.831,144.92,43.618,145.561,44.436,146.159z"/>
	<path fill-rule="evenodd" clip-rule="evenodd" fill="#181818" d="M234.69,150.655c0.217-1.637,0.309-3.281,0.675-4.908
		c0.306-1.367,0.404-2.771,0.571-4.162c0.013-0.099-0.185-0.217-0.286-0.326c0.958-1.197,1.687-2.5,2.367-3.824
		c0.363,0.9,0.319,1.854,0.355,2.771c0.104,2.566-0.005,5.139,0.198,7.705c0.017,0.238-0.108,0.484-0.164,0.729
		C237.284,149.469,236.061,150.161,234.69,150.655z"/>
	<path fill-rule="evenodd" clip-rule="evenodd" fill="#BFDDD1" d="M168.289,68.854c0.245,0.026,0.401,0.175,0.553,0.318
		c1.856,1.746,3.693,3.501,5.565,5.234c0.43,0.397,0.427,0.703-0.028,1.051c-0.473,0.364-0.65,1.18-1.662,0.658
		c-2.218-1.147-4.46-2.263-6.714-3.356c-0.625-0.303-0.652-0.58-0.259-1.047c0.718-0.854,1.39-1.737,2.077-2.611
		C167.936,68.955,168.065,68.843,168.289,68.854z"/>
	<path fill-rule="evenodd" clip-rule="evenodd" fill="#EAEDE0" d="M206.74,104.139c0.074-0.463,0.619-0.457,0.904-0.47
		c0.416-0.019,0.271,0.44,0.315,0.669c0.202,1.033,0.382,2.074,0.458,3.119c0.055,0.756,0.311,1.057,1.185,0.696
		c-1.038,0.862-0.775,1.926-0.629,2.972c-0.339-0.104-0.577-0.338-1.058-0.135c-1.359,0.576-2.758,1.102-4.125,1.657
		c-2.169,0.88-4.35,1.747-6.523,2.625c-0.365,0.148-0.679,0.337-0.759,0.708c-0.469-0.258-0.88-0.059-1.268,0.141
		c-0.578,0.298-0.872,0.143-1.067-0.372c-0.168-0.445-0.374-0.888-0.764-1.239c-0.023-0.662-0.453-1.201-0.777-1.757
		c-0.607-1.042-0.565-1.192,0.739-1.548c0.119-0.032,0.254-0.027,0.382-0.039c0.021,0.426,0.263,0.762,0.642,1.051
		c-0.109-0.338-0.22-0.676-0.329-1.016c0.368,0.002,0.648-0.182,0.943-0.331c0.387,1.255,0.774,2.51,1.183,3.837
		c3.589-1.387,7.112-2.748,10.636-4.109c0.237-0.092,0.463-0.207,0.703-0.292c0.368-0.129,0.425-0.358,0.395-0.671
		c-0.159-1.751-0.496-3.48-0.814-5.213C207.074,104.226,206.99,104.113,206.74,104.139z M194.67,113.241
		c0.088-0.298-0.043-0.498-0.223-0.752C194.306,112.825,194.483,113.012,194.67,113.241z M194.924,113.762
		c-0.024-0.045-0.047-0.084-0.068-0.123c-0.016,0.02-0.049,0.037-0.048,0.057c0.001,0.045,0.017,0.092,0.025,0.137
		C194.865,113.809,194.894,113.786,194.924,113.762z"/>
	<path fill-rule="evenodd" clip-rule="evenodd" fill="#BFDDD1" d="M130.961,66.579c-0.748-0.286-1.01-0.883-1.39-1.391
		c-0.289-0.384,0.126-0.559,0.354-0.757c1.7-1.465,3.425-2.908,5.11-4.384c0.48-0.419,0.772-0.434,1.239,0.034
		c0.651,0.652,1.441,1.203,2.125,1.835c0.425,0.392,0.819,0.737-0.151,1.164c-2.365,1.045-4.647,2.225-6.964,3.351
		C131.174,66.484,131.061,66.533,130.961,66.579z"/>
	<path fill-rule="evenodd" clip-rule="evenodd" fill="#BFDDD1" d="M112.289,64.256c-0.099,0.398-0.476,0.567-0.833,0.758
		c-0.476,0.253-0.938,0.358-1.43,0.01c-1.874-1.323-3.744-2.649-5.638-3.953c-0.637-0.438-0.676-0.802-0.022-1.243
		c0.791-0.533,1.56-1.088,2.319-1.653c0.399-0.297,0.655-0.215,0.949,0.121c1.621,1.843,2.982,3.835,4.515,5.729
		C112.204,64.094,112.24,64.173,112.289,64.256z"/>
	<path fill-rule="evenodd" clip-rule="evenodd" fill="#F4EEDF" d="M109.633,102.049c-0.05-0.674-0.773-0.873-1.254-1.176
		c-2.705-1.705-5.466-3.348-8.191-5.029c-0.363-0.227-0.581-0.229-0.716,0.143c-0.08,0.225-0.137,0.436-0.481,0.412
		c0.168-1.105,0.639-2.202,0.109-3.324c0.891-0.094,1.085-0.621,1.147-1.278c0.083-0.898,0.729-1.64,1.046-2.479
		c0.178-0.474,0.535-0.081,0.743,0.157c-0.505,1.263-1.038,2.52-1.512,3.79c-0.581,1.56-0.57,1.577,1.021,2.544
		c2.521,1.531,5.058,3.04,7.579,4.57c0.438,0.266,0.676,0.281,0.911-0.207c0.347-0.719,0.776-1.41,1.21-2.094
		c0.267-0.42,0.206-0.719-0.276-0.953c0.357-0.021,0.752-0.069,0.938,0.279c0.251,0.486,0.685,0.688,1.28,0.754
		c0.712,0.081,0.852,0.419,0.46,0.926c-0.125,0.162-0.209,0.367-0.377,0.479c-0.623,0.41-0.77,0.915-0.529,1.529
		c-0.354-0.002-0.775-0.063-0.934,0.285C111.372,102.332,110.598,102.397,109.633,102.049z"/>
	<path fill-rule="evenodd" clip-rule="evenodd" fill="#F2F2F1" d="M198.399,119.239c1.493,0.078,2.728-0.557,4.024-1.045
		c2.15-0.805,4.303-1.604,6.496-2.31c0.77-0.247,1.029-0.578,0.927-1.214c0.241,0.231,0.191,0.751,0.853,0.563
		c0.315-0.09,0.421,0.193,0.519,0.393c0.199,0.406,0.384,0.816,0.574,1.224c-4.334,1.502-8.705,2.914-13.104,4.268
		C198.492,120.502,197.868,119.935,198.399,119.239z"/>
	<path fill-rule="evenodd" clip-rule="evenodd" fill="#F2F2F1" d="M97.888,99.996c1.078,0.444,2.25,0.611,3.399,0.842
		c1.07,0.214,2.122,0.669,3.131,0.779c1.671,0.181,3.162,1.016,4.884,0.862c0.31,0.555-0.101,1.082-0.083,1.625
		c-2.516-0.416-4.917-1.186-7.379-1.772c-1.586-0.378-3.153-0.817-4.729-1.229C97.39,100.745,97.105,100.096,97.888,99.996z"/>
	<path fill-rule="evenodd" clip-rule="evenodd" fill="#F9D8BB" d="M196.509,115.981c0.08-0.371,0.394-0.56,0.759-0.708
		c2.174-0.878,4.354-1.745,6.523-2.625c1.367-0.556,2.766-1.081,4.125-1.657c0.48-0.203,0.719,0.031,1.058,0.135
		c0.017,0.135,0.029,0.268,0.044,0.4c-0.052,0.045-0.105,0.09-0.158,0.135c-3.171,1.321-6.343,2.641-9.511,3.967
		c-0.812,0.34-1.663,0.635-2.264,1.256C196.611,116.713,196.577,116.339,196.509,115.981z"/>
	<path fill-rule="evenodd" clip-rule="evenodd" fill="#F4EEDF" d="M41.776,144.622c-1.358,0.975-2.742,1.924-4.056,2.938
		c-0.299,0.23-0.59,0.605-0.523,1.039c-0.59-0.145-0.986-0.461-1.178-0.959c1.564-1.146,3.122-2.298,4.695-3.436
		C41.383,143.72,41.586,144.177,41.776,144.622z"/>
	<path fill-rule="evenodd" clip-rule="evenodd" fill="#181818" d="M302.777,114.18c0.155-0.081,0.489-0.031,0.338-0.336
		c0.101-0.113,0.202-0.226,0.304-0.336c-0.254,3.26-0.157,6.526-0.218,9.791c-0.004,0.359-0.027,0.719-0.043,1.078
		c-0.207-0.061-0.318-0.166-0.297-0.369c0.302-2.863,0.054-5.73,0.124-8.596C302.995,115.004,302.851,114.59,302.777,114.18z"/>
	<path fill-rule="evenodd" clip-rule="evenodd" fill="#181818" d="M302.98,137.095c-0.24-0.267-0.175-0.582-0.176-0.882
		c-0.003-3.131-0.002-6.264-0.001-9.395c0.001-0.357-0.061-0.729,0.293-1.014c0.16,2.574-0.065,5.146-0.049,7.721
		C303.056,134.715,303.004,135.905,302.98,137.095z"/>
	<path fill-rule="evenodd" clip-rule="evenodd" fill="#EAEDE0" d="M124.125,94.706c0.606-1.33,0.916-2.673,0.274-4.068
		c-0.022-0.051,0.065-0.142,0.102-0.214C125.457,91.708,125.271,93.827,124.125,94.706z"/>
	<path fill-rule="evenodd" clip-rule="evenodd" fill="#181818" d="M237.726,120.537c0.073,0.054,0.208,0.104,0.21,0.159
		c0.074,1.283,0.263,2.568-0.09,3.846C237.805,123.208,237.766,121.873,237.726,120.537z"/>
	<path fill-rule="evenodd" clip-rule="evenodd" fill="#181818" d="M226.282,151.799c1.167-0.229,2.336-0.227,3.503-0.002
		C228.618,151.884,227.449,151.887,226.282,151.799z"/>
	<path fill-rule="evenodd" clip-rule="evenodd" fill="#181818" d="M297.118,64.149c-1.037,0.242-2.073,0.229-3.11,0.009
		C295.044,64.036,296.081,64.055,297.118,64.149z"/>
	<path fill-rule="evenodd" clip-rule="evenodd" fill="#EAEDE0" d="M191.075,114.51c0.513,0.002,1.026,0.006,1.54,0.01
		C192.101,114.704,191.585,114.711,191.075,114.51z"/>
	<path fill-rule="evenodd" clip-rule="evenodd" fill="#EAEDE0" d="M122.949,95.383c0.067-0.275,0.312-0.291,0.571-0.285
		C123.431,95.342,123.226,95.417,122.949,95.383z"/>
	<path fill-rule="evenodd" clip-rule="evenodd" fill="#EAEDE0" d="M123.531,95.093c0.035-0.269,0.246-0.333,0.519-0.325
		C124.012,95.034,123.776,95.07,123.531,95.093z"/>
	<path fill-rule="evenodd" clip-rule="evenodd" fill="#EAEDE0" d="M208.859,111.661c0.053-0.045,0.106-0.09,0.158-0.135
		c0.156,0.084,0.15,0.178,0.023,0.279C208.98,111.756,208.92,111.708,208.859,111.661z"/>
	<path fill-rule="evenodd" clip-rule="evenodd" fill="#F4EEDF" d="M98.703,97.461c0.139,0.111,0.104,0.209-0.028,0.301
		C98.685,97.661,98.693,97.561,98.703,97.461z"/>
	<path fill-rule="evenodd" clip-rule="evenodd" fill="#F2F2F1" d="M242.281,114.882c0.516-0.429,1.075-0.078,1.568-0.003
		c2.06,0.32,4.1,0.725,6.164,1.033c2.044,0.306,4.093,0.437,6.129,0.678c2.143,0.252,4.299,0.402,6.423,0.683
		c1.492,0.197,2.955,0.185,4.431,0.239c2.497,0.093,4.997,0.323,7.496,0.162c2.079-0.136,4.151-0.174,6.23-0.145
		c-0.06,0.325-0.348,0.531-0.564,0.769c-1.179,1.299-2.364,2.593-3.555,3.884c-3.388,3.671-6.777,7.338-10.166,11.008
		c-0.847-2.684-1.672-5.375-2.557-8.049c-0.224-0.676-0.223-1.246,0.359-1.764c1.211-1.078,1.27-2.203,0.419-3.506
		c-0.346-0.531-0.638-0.801-1.346-0.825c-1.628-0.055-3.255-0.146-4.878-0.269c-0.552-0.042-0.791,0.119-0.854,0.555
		c-0.004,0.027-0.005,0.058-0.02,0.082c-0.905,1.494-0.681,2.866,0.619,4.115c0.398,0.383,0.35,0.775,0.195,1.234
		c-0.873,2.648-1.713,5.305-2.565,7.957c-0.506,0.223-0.508-0.218-0.642-0.395c-1.925-2.57-3.834-5.15-5.738-7.73
		C247.044,121.36,244.664,118.121,242.281,114.882z"/>
	<path fill-rule="evenodd" clip-rule="evenodd" fill="#464646" d="M242.281,114.882c2.383,3.238,4.763,6.478,7.15,9.714
		c1.904,2.58,3.813,5.16,5.738,7.73c0.134,0.177,0.136,0.617,0.642,0.395c0.232,1.199,1.238,2.05,1.898,3.053
		c0.746,1.129,1.714,2.146,2.394,3.428c-0.834-0.111-1.419-0.49-2.046-0.787c-0.841-0.4-1.553-1.01-2.551-1.156
		c-0.279-0.275-0.642-0.424-1.045-0.519c-0.056-0.048-0.117-0.097-0.176-0.144c-2.176-1.328-4.544-2.387-6.848-3.533
		c-0.392-0.576-0.252-1.186-0.12-1.778c0.265-1.192,0.565-2.38,0.853-3.568c0.223-0.53,0.092-0.886-0.617-1.028
		c-0.372-0.076-0.714-0.252-1.08-0.355c-1.983-0.564-3.858-1.402-5.902-1.826c-0.174-0.604,0-1.197,0.091-1.79
		c0.416-2.68,0.846-5.356,1.271-8.034C242.048,114.749,242.164,114.815,242.281,114.882z"/>
	<path fill-rule="evenodd" clip-rule="evenodd" fill="#464646" d="M266.438,133.19c3.389-3.67,6.778-7.337,10.166-11.008
		c1.19-1.291,2.376-2.585,3.555-3.884c0.217-0.237,0.505-0.443,0.564-0.769c0.115-0.01,0.23-0.02,0.346-0.029
		c0.183,1.771,0.902,3.449,1.276,5.188c0.168,0.787,0.38,1.57,0.589,2.35c0.067,0.252,0.128,0.488-0.105,0.702
		c-2.32,0.79-4.642,1.585-6.963,2.372c-0.693,0.233-0.903,0.676-0.791,1.27c0.068,1.162,0.213,2.324,0.099,3.49
		c-2.177,0.809-4.198,1.875-6.251,2.877c-1.462,0.715-3.057,1.238-4.367,2.18c-0.921,0.033-1.534,0.624-2.304,0.938
		c-0.371,0.15-0.706,0.381-1.136,0.41l0,0c0.772-1.324,2.052-2.328,3.041-3.518C264.882,134.881,265.803,134.129,266.438,133.19z"/>
	<path fill-rule="evenodd" clip-rule="evenodd" fill="#181818" d="M275.074,129.381c-0.112-0.594,0.098-1.036,0.791-1.27
		c2.321-0.787,4.643-1.582,6.963-2.372c0.467,1.3,0.469,1.302-0.985,1.732c-2.128,0.629-4.257,1.257-6.386,1.878
		C275.339,129.385,275.202,129.373,275.074,129.381z"/>
	<path fill-rule="evenodd" clip-rule="evenodd" fill="#464646" d="M262.286,142.654c-0.01,0.901-0.759,1.604-1.703,1.597
		c-1.086-0.007-2.032-0.807-1.987-1.678c0.04-0.76,0.924-1.469,1.805-1.449C261.49,141.147,262.295,141.801,262.286,142.654z"/>
	<path fill-rule="evenodd" clip-rule="evenodd" fill="#464646" d="M262.277,148.948c0.019,0.796-0.757,1.503-1.687,1.537
		c-1.05,0.041-1.995-0.691-2.003-1.553c-0.007-0.66,0.969-1.564,1.718-1.594C261.27,147.302,262.26,148.11,262.277,148.948z"/>
	<path fill-rule="evenodd" clip-rule="evenodd" fill="#181818" d="M240.571,124.506c2.044,0.424,3.919,1.262,5.902,1.826
		c0.366,0.104,0.708,0.279,1.08,0.355c0.709,0.143,0.84,0.498,0.617,1.028c-2.305-0.683-4.597-1.39-6.916-2.034
		C240.467,125.463,240.545,125.005,240.571,124.506z"/>
	<path fill-rule="evenodd" clip-rule="evenodd" fill="#181818" d="M264.555,137.928c1.311-0.941,2.905-1.465,4.367-2.18
		c2.053-1.002,4.074-2.068,6.251-2.877c0.541,0.617-0.058,0.871-0.535,1.074c-1.377,0.586-2.763,1.164-4.18,1.672
		c-1.622,0.582-3.163,1.292-4.706,2.004C265.379,137.795,265.006,137.97,264.555,137.928z"/>
	<path fill-rule="evenodd" clip-rule="evenodd" fill="#181818" d="M247.438,133.063c2.304,1.146,4.672,2.205,6.848,3.533
		c-0.848,0.021-1.417-0.509-2.105-0.797c-1.499-0.625-2.989-1.272-4.449-1.962C247.491,133.727,246.633,133.557,247.438,133.063z"/>
	<path fill-rule="evenodd" clip-rule="evenodd" fill="#181818" d="M254.462,136.74c0.403,0.095,0.766,0.243,1.045,0.519
		C255.038,137.264,254.542,137.309,254.462,136.74z"/>
	<path fill-rule="evenodd" clip-rule="evenodd" fill="#464646" d="M261.115,139.276c-0.013,0.018-0.023,0.033-0.033,0.051
		C261.092,139.309,261.102,139.292,261.115,139.276L261.115,139.276z"/>
	<path fill-rule="evenodd" clip-rule="evenodd" fill="#181818" d="M303.074,113.758c-0.276,0.061-0.431-0.096-0.591-0.242
		C302.721,113.526,302.912,113.616,303.074,113.758z"/>
	<path fill-rule="evenodd" clip-rule="evenodd" fill="#99C9B9" d="M39.074,141.79c-2.417-2.141-4.381-4.4-5.728-7.031
		c-1.753-3.428-2.036-6.892-0.285-10.379c1.439-2.864,3.867-5.058,6.662-6.986c0.434-0.3,0.586-0.22,0.629,0.242
		c0.501,5.334,1.013,10.666,1.53,15.999c0.094,0.964-0.451,1.784-0.76,2.653C40.479,138.089,39.788,139.877,39.074,141.79z"/>
	<path fill-rule="evenodd" clip-rule="evenodd" fill="#7E7E7E" d="M58.935,140.837c0,0.737-0.69,1.302-1.567,1.288
		c-0.836-0.018-1.489-0.563-1.51-1.266c-0.022-0.7,0.791-1.371,1.648-1.362C58.259,139.506,58.937,140.14,58.935,140.837z"/>
	<path fill-rule="evenodd" clip-rule="evenodd" fill="#7E7E7E" d="M58.937,133.038c0.013,0.697-0.645,1.314-1.42,1.336
		c-0.873,0.023-1.651-0.608-1.65-1.342c0-0.656,0.709-1.264,1.499-1.281C58.209,131.729,58.922,132.313,58.937,133.038z"/>
	<path fill-rule="evenodd" clip-rule="evenodd" fill="#7E7E7E" d="M57.456,126.57c-0.875,0.02-1.569-0.536-1.589-1.27
		c-0.018-0.697,0.722-1.343,1.533-1.339c0.813,0.004,1.529,0.629,1.537,1.342C58.947,125.98,58.275,126.553,57.456,126.57z"/>
	<path fill-rule="evenodd" clip-rule="evenodd" fill="#7E7E7E" d="M107.274,105.958c-0.02,0.598-0.588,1.055-1.28,1.002
		c-0.717-0.053-1.142-0.397-1.181-1.016c-0.039-0.607,0.604-1.139,1.298-1.115C106.772,104.85,107.293,105.357,107.274,105.958z"/>
	<path fill-rule="evenodd" clip-rule="evenodd" fill="#7E7E7E" d="M105.01,108.297c0.579,0.029,1.041,0.359,1.062,1.021
		c0.016,0.674-0.452,1.021-1.216,1.036c-0.79,0.015-1.188-0.396-1.257-1.026C103.533,108.739,104.085,108.301,105.01,108.297z"/>
	<path fill-rule="evenodd" clip-rule="evenodd" fill="#7E7E7E" d="M34.682,144.372c-0.031,0.433-0.222,0.707-0.691,0.726
		c-0.467,0.019-0.75-0.237-0.774-0.603c-0.026-0.369,0.233-0.633,0.699-0.662C34.396,143.801,34.605,144.053,34.682,144.372z"/>
	<path fill-rule="evenodd" clip-rule="evenodd" fill="#7E7E7E" d="M36.24,146.057c-0.016,0.375-0.193,0.66-0.682,0.646
		c-0.434-0.012-0.753-0.234-0.756-0.623c0-0.338,0.255-0.576,0.668-0.602C35.925,145.452,36.208,145.638,36.24,146.057z"/>
	<path fill-rule="evenodd" clip-rule="evenodd" fill="#272727" d="M259.333,99.065c3.139-0.03,6.234,0.229,9.294,0.866
		c0.912,0.189,1.107,0.529,0.952,1.267c-0.731,3.479-2.589,6.334-6.617,7.574c-4.162,1.281-8.252,0.999-11.685-1.697
		c-2.212-1.736-3.12-4.052-3.496-6.547c-0.074-0.496,0.263-0.541,0.676-0.603C252.057,99.385,255.675,99.042,259.333,99.065z"/>
	<path fill-rule="evenodd" clip-rule="evenodd" fill="#272727" d="M274.414,94.225c-0.037,0.57-0.123,1.234-0.57,1.813
		c-0.625,0.812-1.642,0.844-2.343,0.087c-0.884-0.957-0.988-3.12-0.202-4.139c0.68-0.879,1.602-0.904,2.369-0.068
		C274.12,92.412,274.407,93.261,274.414,94.225z"/>
	<path fill-rule="evenodd" clip-rule="evenodd" fill="#272727" d="M247.01,93.807c-0.016,0.795-0.158,1.502-0.694,2.105
		c-0.569,0.643-1.34,0.693-2.002,0.143c-1.195-0.996-1.303-3.533-0.192-4.58c0.596-0.564,1.43-0.551,2.031,0.049
		C246.821,92.198,246.985,93.016,247.01,93.807z"/>
	<path fill-rule="evenodd" clip-rule="evenodd" fill="#F98087" d="M63.434,97.78c-2.912-0.001-5.472-1.69-6.167-4.068
		c-0.317-1.09-0.14-1.297,1.141-1.298c3.385-0.001,6.769-0.001,10.154,0.003c1.183,0.002,1.255,0.081,1.028,1.047
		C68.972,96.094,66.568,97.78,63.434,97.78z"/>
	<path fill-rule="evenodd" clip-rule="evenodd" fill="#5C331E" d="M54.846,81.649c-0.037,0.729-0.053,1.57-0.611,2.308
		c-0.619,0.817-1.547,0.837-2.211,0.056c-0.914-1.078-0.897-3.912,0.025-4.958c0.636-0.72,1.588-0.692,2.17,0.077
		C54.771,79.864,54.825,80.702,54.846,81.649z"/>
	<path fill-rule="evenodd" clip-rule="evenodd" fill="#5C331E" d="M73.954,81.514c0.016-0.783,0.058-1.558,0.54-2.262
		c0.64-0.933,1.831-0.992,2.361-0.039c0.853,1.537,0.83,3.148,0.01,4.688c-0.495,0.919-1.693,0.893-2.317,0.028
		C74.107,83.319,73.947,82.657,73.954,81.514z"/>
	<path fill-rule="evenodd" clip-rule="evenodd" fill="#464646" d="M206.697,129.579c-0.213,0.518-0.561,0.93-1.267,0.973
		c-0.565,0.035-1.289-0.607-1.209-1.096c0.097-0.601,0.521-0.92,1.27-0.9C206.269,128.574,206.539,128.999,206.697,129.579z"/>
	<path fill-rule="evenodd" clip-rule="evenodd" fill="#464646" d="M203.731,125.391c0.596,0.013,1.009,0.35,1.139,0.887
		c0.119,0.466-0.627,1.127-1.209,1.103c-0.706-0.028-1.176-0.339-1.225-0.97C202.397,125.906,203.016,125.41,203.731,125.391z"/>
	<path fill-rule="evenodd" clip-rule="evenodd" fill="#464646" d="M201.754,122.189c0.735,0.046,1.185,0.349,1.225,0.976
		c0.041,0.659-0.466,1.002-1.141,0.998c-0.681-0.006-1.139-0.431-1.173-1.02C200.634,122.545,201.119,122.272,201.754,122.189z"/>
	<path fill-rule="evenodd" clip-rule="evenodd" fill="#4D7568" d="M201.033,98.424c-1.765,0.346-2.801,1.412-2.833,2.923
		c-0.003,0.304,0.011,0.608,0.019,0.911c-1.084,0.127-2.168,0.068-3.252-0.012l0.025,0.024c-0.09-0.157-0.26-0.151-0.425-0.155
		c-0.491-0.145-0.447-0.418-0.344-0.788c0.379-1.335-0.163-2.349-1.493-2.906c-0.378-0.258-0.814-0.335-1.283-0.304
		c-0.134-0.012-0.262-0.023-0.394-0.035c-0.266-0.097-0.53-0.063-0.793,0.005c-0.33,0.018-0.663,0.034-0.994,0.052
		c-0.847,0.266-1.295-0.021-1.773-0.67c-3.406-4.625-7.544-8.73-12.275-12.402c-0.287-0.223-0.57-0.449-0.982-0.773
		c1.83-0.435,3.526-0.841,5.226-1.242c4.992-1.176,9.988-2.34,14.974-3.533c0.695-0.166,1.063-0.076,1.484,0.487
		c4.049,5.409,7.158,11.18,9.238,17.353c0.083,0.238,0.417,0.608,0.025,0.729c-0.355,0.109-0.923,0.229-1.223-0.193
		c-0.247-0.347-0.313-0.255-0.427,0.057c-0.092,0.248-0.385,0.145-0.591,0.164C202.295,98.176,201.641,98.196,201.033,98.424z
		 M201.644,92.766c0.014-0.139,0.041-0.197,0.021-0.238c-1.312-2.854-2.907-5.586-4.696-8.24c-0.223-0.331-0.493-0.357-0.891-0.316
		c-2.136,0.221-3.987-0.322-5.516-1.616c-0.322-0.272-0.611-0.322-1.038-0.217c-1.938,0.479-3.88,0.941-5.827,1.382
		c-0.527,0.117-0.602,0.243-0.336,0.672c0.73,1.177,0.429,2.135-0.862,2.875c-0.422,0.242-0.899,0.411-1.431,0.65
		c2.861,2.717,5.409,5.604,7.761,8.786C189.433,91.883,197.139,90.075,201.644,92.766z"/>
	<path fill-rule="evenodd" clip-rule="evenodd" fill="#4D7568" d="M206.74,104.139c0.25-0.026,0.334,0.087,0.371,0.283
		c0.318,1.732,0.655,3.462,0.814,5.213c0.03,0.313-0.026,0.542-0.395,0.671c-0.24,0.085-0.466,0.2-0.703,0.292
		c-3.523,1.361-7.047,2.723-10.636,4.109c-0.408-1.327-0.796-2.582-1.183-3.837c0.839-0.122,1.623-0.362,2.322-0.786
		c0.953-0.188,1.801,0.209,2.29,1.234c0.263,0.547,0.52,0.564,1.061,0.34c0.906-0.376,1.831-0.72,2.767-1.04
		c0.493-0.169,0.67-0.403,0.648-0.873c-0.051-1.073,0.281-2.124,1.312-2.75c0.854-0.521,0.926-1.019,0.571-1.728
		C205.868,104.712,206.586,104.565,206.74,104.139z"/>
	<path fill-rule="evenodd" clip-rule="evenodd" fill="#F4EEDF" d="M205.98,105.268c0.354,0.709,0.283,1.207-0.571,1.728
		c-1.03,0.626-1.362,1.677-1.312,2.75c0.021,0.47-0.155,0.704-0.648,0.873c-0.936,0.32-1.86,0.664-2.767,1.04
		c-0.541,0.225-0.798,0.207-1.061-0.34c-0.489-1.025-1.337-1.422-2.29-1.234c0.25-0.463,0.854-0.249,1.268-0.498
		c1.549-0.933,0.968-3.739-0.666-4.152c-0.955-0.242-1.443-0.721-1.585-1.475c-0.147-0.783-0.797-1.217-1.382-1.713
		c1.084,0.08,2.168,0.139,3.252,0.012c0.335,1.65,0.925,3.182,2.46,4.349c0.471,0.358,0.917,0.593,1.549,0.528
		C203.795,106.975,205.062,106.377,205.98,105.268z"/>
	<path fill-rule="evenodd" clip-rule="evenodd" fill="#4D7568" d="M186.531,98.785c-0.49,0.125-0.868,0.134-1.247-0.301
		c-3.896-4.483-8.56-8.313-13.75-11.688c-0.127-0.082-0.294-0.133-0.309-0.371c0.727-0.223,1.485-0.441,2.231-0.687
		c0.383-0.125,0.614,0.038,0.858,0.237c1.201,0.982,2.5,1.891,3.592,2.955c3.135,3.057,6.479,5.976,8.936,9.502
		C186.74,98.549,186.633,98.668,186.531,98.785z"/>
	<path fill-rule="evenodd" clip-rule="evenodd" fill="#4D7568" d="M183.787,100.012c-4.466-4.174-9.577-7.68-15.338-10.707
		c0.935-0.381,1.767-0.718,2.597-1.054c0.42-0.17,0.684,0.102,0.944,0.282c1.162,0.806,2.449,1.523,3.429,2.472
		c2.821,2.729,6.412,4.826,8.77,7.923c0.195,0.256,0.637,0.469,0.188,0.83C184.18,99.842,183.983,99.928,183.787,100.012z"/>
	<path fill-rule="evenodd" clip-rule="evenodd" fill="#7E7E7E" d="M194.066,111.202c0.109,0.34,0.22,0.678,0.329,1.016
		c-0.379-0.289-0.62-0.625-0.642-1.051C193.858,111.178,193.962,111.192,194.066,111.202z"/>
	<path fill-rule="evenodd" clip-rule="evenodd" fill="#EAEDE0" d="M191.447,98.118c0.469-0.031,0.905,0.046,1.283,0.304
		C192.292,98.351,191.733,98.651,191.447,98.118z"/>
	<path fill-rule="evenodd" clip-rule="evenodd" fill="#EAEDE0" d="M190.261,98.087c0.263-0.068,0.527-0.102,0.793-0.005
		C190.792,98.306,190.527,98.325,190.261,98.087z"/>
	<path fill-rule="evenodd" clip-rule="evenodd" fill="#F4EEDF" d="M194.567,102.116c0.165,0.004,0.335-0.002,0.425,0.155
		C194.851,102.22,194.708,102.168,194.567,102.116z"/>
	<path fill-rule="evenodd" clip-rule="evenodd" fill="#4D7568" d="M110.43,89.196c0.008-0.164-0.011-0.334,0.027-0.494
		c0.39-1.707-0.131-2.598-1.837-3.462c-0.735-0.372-1.846-0.15-2.243-1.036c-0.103,0.053-0.212,0.097-0.306,0.16
		c-0.46,0.314-0.914,0.111-1.372-0.004c3.152-5.589,7.323-10.573,12.292-15.082c0.279-0.252,0.51-0.438,0.99-0.235
		c5.724,2.409,11.461,4.797,17.191,7.194c0.108,0.044,0.202,0.114,0.365,0.208c-5.677,2.942-10.836,6.351-15.2,10.586
		c-0.966-0.214-1.862-0.619-2.888-0.674c-2.167-0.112-3.343,0.829-3.303,2.698c0.004,0.171,0.015,0.329-0.112,0.47
		C112.806,89.637,111.604,89.528,110.43,89.196z M109.268,80.059c1.558-0.48,3.14-0.674,4.791-0.375
		c2.682,0.481,6.069,2.316,5.948,5.36c-0.001,0.024,0.09,0.052,0.17,0.096c2.459-2.219,5.058-4.322,7.919-6.17
		c0.602-0.387,0.536-0.554-0.03-0.907c-1.486-0.93-1.679-1.877-0.644-3.126c0.311-0.377,0.109-0.456-0.219-0.59
		c-1.671-0.692-3.345-1.378-5.003-2.091c-0.367-0.158-0.632-0.152-0.977,0.045c-1.646,0.939-3.438,1.151-5.317,0.65
		c-0.428-0.113-0.654-0.042-0.917,0.227c-2.119,2.153-4.144,4.366-5.863,6.771c-0.016,0.06-0.03,0.119-0.044,0.18
		C109.144,80.106,109.205,80.083,109.268,80.059z"/>
	<path fill-rule="evenodd" clip-rule="evenodd" fill="#4D7568" d="M110.969,97.125c0.482,0.234,0.543,0.533,0.276,0.953
		c-0.434,0.684-0.863,1.375-1.21,2.094c-0.235,0.488-0.473,0.473-0.911,0.207c-2.521-1.53-5.059-3.039-7.579-4.57
		c-1.591-0.967-1.602-0.984-1.021-2.544c0.474-1.271,1.007-2.527,1.512-3.79c0,0,0.053-0.05,0.055-0.05
		c0.153,0.186,0.309,0.371,0.464,0.558c0.235,0.152,0.218,0.385,0.261,0.6c-0.494,0.672-0.6,1.256,0.192,1.893
		c0.547,0.441,0.816,1.201,0.63,1.783c-0.462,1.443,0.647,1.947,1.752,2.523c0.332,0.174,0.657,0.361,0.961,0.57
		c0.381,0.261,0.599,0.25,0.9-0.139c0.533-0.688,1.202-1.267,2.326-0.897c0.062,0.048,0.123,0.095,0.185,0.142
		c0.335,0.318,0.744,0.535,1.219,0.67L110.969,97.125z"/>
	<path fill-rule="evenodd" clip-rule="evenodd" fill="#F4EEDF" d="M109.577,96.316c-1.124-0.369-1.793,0.21-2.326,0.897
		c-0.302,0.389-0.52,0.399-0.9,0.139c-0.304-0.209-0.629-0.396-0.961-0.57c-1.104-0.576-2.214-1.08-1.752-2.523
		c0.187-0.582-0.083-1.342-0.63-1.783c-0.792-0.637-0.687-1.221-0.192-1.893c0.384,0.613,0.535,1.283,1.3,1.766
		c1.634,1.036,3.38,0.897,4.542-0.56c0.444-0.556,1.046-1.024,1.177-1.76c0.053-0.296,0.389-0.556,0.596-0.833
		c1.175,0.332,2.376,0.441,3.605,0.33c0.144,0.263-0.128,0.186-0.247,0.212c-1.112,0.245-2.042,0.675-2.381,1.704
		c-0.118,0.356-0.433,0.459-0.808,0.504c-1.646,0.192-2.302,1.145-2.633,2.414c-0.186,0.723,0.31,1.022,0.882,1.303
		C109.179,95.825,109.629,95.854,109.577,96.316z"/>
	<path fill-rule="evenodd" clip-rule="evenodd" fill="#4D7568" d="M121.341,87.549c1.514-1.653,3.317-3.077,5.255-4.327
		c2.686-1.729,5.252-3.599,8.146-5.093c0.73-0.376,1.253-0.442,1.895,0.018c0.364,0.26,0.882,0.337,1.263,0.762
		c-5.689,2.41-10.899,5.363-15.533,9.03C122.023,87.809,121.682,87.68,121.341,87.549z"/>
	<path fill-rule="evenodd" clip-rule="evenodd" fill="#4D7568" d="M123.146,88.545c2.016-1.363,3.875-2.899,6.112-4.016
		c0.395-0.197,0.782-0.404,1.193-0.573c1.905-0.785,3.373-2.126,5.267-2.96c1.296-0.57,2.231-0.678,3.242,0.225
		c0.221,0.197,0.567,0.277,0.737,0.596c-5.632,1.897-10.979,4.225-15.776,7.404C123.547,89.094,123.333,88.83,123.146,88.545z"/>
	<path fill-rule="evenodd" clip-rule="evenodd" fill="#F4EEDF" d="M110.98,97.127c-0.475-0.135-0.884-0.352-1.219-0.67
		C110.333,96.459,110.752,96.668,110.98,97.127z"/>
	<path fill-rule="evenodd" clip-rule="evenodd" fill="#F4EEDF" d="M102.555,89.983c-0.155-0.187-0.311-0.372-0.464-0.558
		C102.519,89.444,102.574,89.692,102.555,89.983z"/>
	<path fill-rule="evenodd" clip-rule="evenodd" fill="#7E7E7E" d="M194.67,113.241c-0.187-0.229-0.364-0.416-0.223-0.752
		C194.627,112.743,194.758,112.943,194.67,113.241z"/>
	<path fill-rule="evenodd" clip-rule="evenodd" fill="#7E7E7E" d="M194.924,113.762c-0.03,0.023-0.059,0.047-0.091,0.07
		c-0.009-0.045-0.024-0.092-0.025-0.137c-0.001-0.02,0.032-0.037,0.048-0.057C194.877,113.678,194.899,113.717,194.924,113.762z"/>
	<path fill-rule="evenodd" clip-rule="evenodd" fill="#F4EEDF" d="M201.644,92.766c-4.505-2.691-12.211-0.883-12.814,3.737
		c-2.352-3.183-4.899-6.069-7.761-8.786c0.531-0.239,1.009-0.408,1.431-0.65c1.291-0.74,1.593-1.698,0.862-2.875
		c-0.266-0.429-0.191-0.555,0.336-0.672c1.947-0.44,3.89-0.902,5.827-1.382c0.427-0.105,0.716-0.056,1.038,0.217
		c1.528,1.294,3.38,1.837,5.516,1.616c0.397-0.041,0.668-0.015,0.891,0.316c1.789,2.654,3.385,5.387,4.696,8.24
		C201.685,92.569,201.657,92.627,201.644,92.766z"/>
	<path fill-rule="evenodd" clip-rule="evenodd" fill="#F4EEDF" d="M109.125,79.95c1.721-2.405,3.745-4.618,5.864-6.771
		c0.263-0.269,0.489-0.34,0.917-0.227c1.88,0.501,3.671,0.289,5.317-0.65c0.345-0.197,0.609-0.203,0.977-0.045
		c1.658,0.713,3.332,1.398,5.003,2.091c0.328,0.134,0.529,0.212,0.219,0.59c-1.035,1.249-0.843,2.196,0.644,3.126
		c0.566,0.354,0.632,0.521,0.03,0.907c-2.861,1.848-5.46,3.951-7.919,6.17c-0.08-0.044-0.171-0.071-0.17-0.096
		c0.121-3.044-3.267-4.879-5.948-5.36c-1.651-0.299-3.233-0.105-4.791,0.375C109.224,80.019,109.176,79.983,109.125,79.95z"/>
	<path fill-rule="evenodd" clip-rule="evenodd" fill="#F4EEDF" d="M109.268,80.059c-0.063,0.023-0.124,0.047-0.186,0.07
		c0.014-0.061,0.028-0.12,0.043-0.18C109.176,79.983,109.224,80.019,109.268,80.059z"/>
</g>
</svg>
