<?xml version="1.0" encoding="utf-8"?>
<!-- Generator: Adobe Illustrator 16.0.0, SVG Export Plug-In . SVG Version: 6.00 Build 0)  -->
<!DOCTYPE svg PUBLIC "-//W3C//DTD SVG 1.1//EN" "http://www.w3.org/Graphics/SVG/1.1/DTD/svg11.dtd">
<svg version="1.1" id="Capa_1" xmlns="http://www.w3.org/2000/svg" xmlns:xlink="http://www.w3.org/1999/xlink" x="0px" y="0px"
	 width="290.984px" height="239.987px" viewBox="0 0 290.984 239.987" enable-background="new 0 0 290.984 239.987"
	 xml:space="preserve">
<g>
	<path fill="#14788B" d="M214.167,95.796c-8.508-1.309-40.436-1.193-49.314-0.222c-8.752,1.001-14.549,6.396-15.863,15.095
		c-1.41,9.2-1.131,43.643,0.016,50.533c1.182,7.227,5.295,12.149,12.451,14.176c7.496,2.058,43.574,1.586,51.654,0.695
		c8.805-0.942,14.617-6.394,15.945-15.123c1.344-8.837,1.094-40.971,0.215-49.199C228.296,102.967,222.888,97.131,214.167,95.796
		 M188.968,161.508c-14.166-0.025-25.621-11.505-25.637-25.658c-0.014-14.202,11.484-25.712,25.674-25.712
		c14.232,0,25.701,11.51,25.701,25.712C214.693,150.057,203.162,161.535,188.968,161.508 M215.695,115.172
		c-3.352,0-5.996-2.642-6.025-5.98c-0.014-3.39,2.689-6.056,6.064-6.056c3.344,0.025,5.988,2.723,5.961,6.056
		C221.695,112.53,219.035,115.172,215.695,115.172"/>
	<path fill="#14788B" d="M189.078,119.229c-9.225,0-16.668,7.393-16.668,16.539c0,9.173,7.371,16.651,16.424,16.678
		c9.322,0,16.797-7.338,16.797-16.566C205.63,126.677,198.244,119.229,189.078,119.229"/>
	<path fill="#14788B" d="M189.041,54.546c-45.244,0-81.906,36.692-81.906,81.918c0,45.227,36.678,81.917,81.906,81.917
		c45.244,0,81.908-36.69,81.908-81.917C270.949,91.209,234.285,54.546,189.041,54.546 M237.585,164.762
		c-2.982,11.396-10.412,18.15-21.941,20.04c-8.715,1.389-47.541,1.667-55.451-0.362c-11.418-2.945-18.219-10.338-20.127-21.85
		c-1.395-8.448-1.861-47.726,0.533-56.229c3.102-11.094,10.443-17.652,21.678-19.457c9.801-1.613,37.754-1.196,49.535-0.559
		c6.92,0.361,13.205,2.53,18.359,7.479c4.912,4.641,7.43,10.479,8.104,17.067C239.072,118.786,239.876,156.002,237.585,164.762"/>
	<path fill="#14788B" d="M20.044,118.364c-0.133-3.219,1.246-6.225,3.582-7.754c2.391-1.58,5.061-2.666,8.152-3.335
		c5.186-1.082,10.605-0.779,15.844-0.472c1.691,0.085,3.293,0.166,4.854,0.225c0.898,0.025,1.904,0.025,2.99,0.025
		c7.525,0.027,17.828,0.057,22.201,6.281c1.195,1.696,1.262,3.697,0.184,5.477c-1.92,3.254-5.738,5.447-11.648,6.699
		c-3.527,0.75-7.266,1.087-10.264,1.333c-1.07,0.086-2.055,0.17-2.918,0.251c-1.535,0.167-3.08,0.391-4.713,0.613
		c-7.73,1.057-16.482,2.223-24.121-1.976C21.72,124.37,20.169,121.618,20.044,118.364 M66.951,49.321
		c0.072-2.641,1.166-5.144,3.027-6.838c1.131-1.031,2.512-1.781,3.975-2.143c3.309-0.86,6.875,0.166,9.297,2.669
		c2.018,2.083,5.605,6.03,9.07,9.866c3.434,3.809,6.979,7.756,8.936,9.732c1.656,1.723,2.541,4.057,2.461,6.559
		c-0.076,2.613-1.16,5.033-2.992,6.729c-1.137,1.025-2.443,1.75-3.936,2.111c-3.236,0.861-6.781-0.166-9.277-2.67L69.484,55.88
		C67.791,54.185,66.898,51.851,66.951,49.321 M61.544,168.765l15.908-6.035c0.975-0.361,1.994-0.553,3.051-0.553
		c3.951,0,7.621,2.611,8.906,6.337c1.633,4.752-0.863,9.978-5.693,11.839l-15.857,6.175c-0.977,0.387-2.031,0.583-3.102,0.583
		c-3.93,0-7.705-2.671-8.98-6.396C54.093,175.877,56.632,170.626,61.544,168.765"/>
</g>
</svg>
