<?xml version="1.0" encoding="utf-8"?>
<!-- Generator: Adobe Illustrator 16.0.0, SVG Export Plug-In . SVG Version: 6.00 Build 0)  -->
<!DOCTYPE svg PUBLIC "-//W3C//DTD SVG 1.1//EN" "http://www.w3.org/Graphics/SVG/1.1/DTD/svg11.dtd">
<svg version="1.1" id="Capa_1" xmlns="http://www.w3.org/2000/svg" xmlns:xlink="http://www.w3.org/1999/xlink" x="0px" y="0px"
	 width="928px" height="164px" viewBox="0 0 928 164" enable-background="new 0 0 928 164" xml:space="preserve">
<g>
	<path fill-rule="evenodd" clip-rule="evenodd" d="M884.285,67.671c0.234-0.577,0.514-1.131,0.841-1.659
		c0.081-0.179,0.148-0.364,0.237-0.539c0.162-1.124,0.472-2.221,0.938-3.244c-0.064-0.72-0.09-1.444-0.029-2.165
		c-0.462-1.309-0.71-2.703-0.711-4.104c-0.537-0.78-0.974-1.627-1.292-2.525c-7.449-10.056-15.747-13.769-23.071-11.287
		c-9.652,3.271-13.457,9.542-13.309,20.548c2.827-1.791,5.191-2.834,6.954-4.51c2.707-2.573,5.123-5.414,9.213-5.57
		c7.654-0.291,10.491,6.6,6.535,14.789c-2.907,6.02-5.237,12.328-7.605,18.591c-0.489,1.294-0.059,2.956,0.03,4.444
		c0.527,8.889,2.787,10.521,10.941,8.542c1.038-5.764,1.486-11.435,3.17-16.711c1.686-5.278,4.605-10.163,6.946-15.142
		C884.146,67.226,884.217,67.413,884.285,67.671z"/>
	<path fill-rule="evenodd" clip-rule="evenodd" d="M885.807,130.636c-0.307-0.931-0.51-1.897-0.584-2.882
		c-0.165-0.236-0.336-0.469-0.48-0.719c-0.014,0.067-0.027,0.146-0.041,0.209c-2.48-2.303-3.363-8.119-8.458-4.023
		c-2.957,2.377-7.141,5.208-5.11,8.894c3.197,5.803,8.877,2.404,13.721,1.25C885.06,132.415,885.377,131.497,885.807,130.636z"/>
	<path fill-rule="evenodd" clip-rule="evenodd" d="M842.372,123.801c-4.527,0.455-8.907,2.215-13.423,3.004
		c-6.895,1.204-13.45-0.253-19.364-3.907c-1.339-0.827-1.93-2.867-3.663-5.614c9.076,1.048,15.562-1.274,21.345-5.994
		c10.44-8.521,13.701-22.581,7.696-33.29c-5.611-10.008-24.974-10.166-33.609,1.929c-7.055,9.882-9.533,20.975-6.755,33.401
		c2.195,9.814,6.818,16.893,16.03,20.872c1.656,0.716,3.385,1.272,5.065,2.537c1.23,0.133,2.339,0.439,3.325,0.891
		c0.635,0.076,1.241,0.195,1.813,0.358c0.848-0.202,1.754-0.324,2.742-0.324c1.348,0,2.566,0.2,3.658,0.56
		c1.171-0.43,2.485-0.685,3.967-0.685c0.667,0,1.292,0.063,1.896,0.155c0.042-0.006,0.078-0.018,0.12-0.023
		c0.983-0.492,2.086-0.849,3.327-1.013c-0.065-0.026-0.116-0.052-0.186-0.078c3.646-1.222,6.856-2.053,9.852-3.37
		c2.931-1.29,4.469-4.271,2.804-6.813C847.92,124.729,844.558,123.581,842.372,123.801z M805.922,97.489
		c1.228-4.822,2.484-9.522,6.883-13.074c3.314-2.676,6.878-4.429,10.113-2.562c2.607,1.505,3.82,5.427,5.651,8.276l-1.207,0.788
		c-0.031,7.842-8.31,15.087-16.3,14.266C807.947,104.864,805.03,100.987,805.922,97.489z"/>
	<path fill-rule="evenodd" clip-rule="evenodd" d="M712.84,123.917c-6.095,1.341-12.305,2.937-18.467,2.938
		c-4.298,0.001-8.702-2.233-12.836-3.993c-1.333-0.567-1.957-2.802-3.745-5.575c13.61,1.556,21.35-4.883,27.873-13.922
		c6.104-8.457,5.554-26.433-5.527-31.112c-5.837-2.464-17.733-1.029-23.101,3.697c-5.798,5.105-8.709,11.486-10.469,19.136
		c-2.474,10.759-1.32,20.396,4.295,29.724c3.888,6.46,10.114,9.365,16.901,12.112c0.063,0,0.121-0.009,0.185-0.009
		c2.284,0,4.195,0.575,5.743,1.532h0.59c1.513-0.883,3.357-1.407,5.542-1.407c1.197,0,2.284,0.168,3.279,0.454
		c1.259-0.524,2.703-0.829,4.346-0.829c0.437,0,0.859,0.021,1.27,0.062c0.051-0.019,0.1-0.042,0.151-0.061
		c-0.021-0.104-0.041-0.207-0.062-0.311c2.797-0.94,5.586-1.907,8.394-2.816c3.678-1.192,5.216-4.156,3.795-7.261
		C719.579,123.179,716.231,123.171,712.84,123.917z M689.838,81.296c5.158-0.847,10.082,2.902,9.509,9.467
		c0.042,7.801-8.705,15.724-16.457,14.18c-2.058-0.409-4.335-3.363-5.147-5.637C675.818,93.921,684.097,82.238,689.838,81.296z"/>
	<path fill-rule="evenodd" clip-rule="evenodd" d="M660.581,120.257c-2.005-11.086-4.944-22.004-7.546-32.979
		c-0.605-2.55-1.4-5.055-2.114-7.601c-4.049-0.145-7.651,2.659-7.492,6.497c0.504,12.091,0.781,24.229,2.196,36.225
		c0.586,4.97,3.834,9.624,5.936,14.574h-0.246c0.352,0.465,0.663,0.956,0.933,1.473h7.681c0.303-0.512,0.642-1.002,1.029-1.455
		h-0.208C660.749,131.366,661.557,125.649,660.581,120.257z"/>
	<path fill-rule="evenodd" clip-rule="evenodd" d="M630.856,79.26c-3.742,0.105-7.587,0.452-11.171,1.478
		c-6.805,1.947-15.932-2.363-18.391-9.345c-1.346-3.825-2.638-7.727-3.349-11.702c-0.726-4.053-0.71-8.238-1.017-12.346
		c-5.199-0.373-7.509,1.281-7.844,6.805c-0.412,6.782-0.1,13.608-0.1,21.303c-4.353,0-8.596-0.002-12.838,0
		c-2.5,0.002-5.144-0.492-7.456,0.168c-1.93,0.552-3.472,2.46-5.186,3.768c1.337,1.361,2.448,3.466,4.051,3.951
		c5.461,1.651,11.051,2.987,16.675,3.963c6.281,1.09,10.224,5.216,11.006,11.655c1.111,9.149,2.176,18.334,4.018,27.35
		c0.758,3.714,3.48,7.025,5.381,10.656h-0.319c0.256,0.477,0.477,0.972,0.662,1.482h5.36c0.371-0.69,0.815-1.34,1.336-1.931
		c3.48-6.078,0.313-11.716-1.427-17.47c-2.47-8.169-7.612-15.568-7.096-24.597c0.056-0.978,0.186-1.95,0.339-3.519
		c7.497-0.581,14.903-1.041,22.28-1.793c2.4-0.245,5.106-0.731,6.954-2.087c1.38-1.013,2.112-3.6,2.109-5.484
		C634.834,80.749,632.238,79.221,630.856,79.26z"/>
	<path fill-rule="evenodd" clip-rule="evenodd" d="M447.852,123.755c-5.045,0.493-9.941,2.329-14.973,3.172
		c-6.578,1.103-12.706-0.791-18.277-4.168c-1.283-0.777-1.744-2.91-2.207-3.742c5.689-1.83,11.54-2.671,16.258-5.44
		c10.771-6.326,16.199-16.106,14.353-28.855c-0.927-6.396-6.657-13.143-14.791-13.726c-15.101-1.082-24.303,8.641-27.315,20.367
		c-2.797,10.885-3.147,21.386,2.238,31.47c3.901,7.306,10.02,11.94,18.395,14.028h-1.24c0.056,0.026,0.107,0.058,0.162,0.085
		c2.057,0.08,3.811,0.617,5.239,1.5h11.975c1.447-1.191,3.295-2.008,5.56-2.223c2.797-0.946,5.897-1.488,8.145-3.169
		c1.844-1.379,2.506-4.34,3.692-6.598C452.652,125.488,450.146,123.531,447.852,123.755z M421.94,81.757
		c2.413-0.647,5.891,0.149,8.032,1.573c3.875,2.575,4.166,7.216,2.723,11.089c-2.151,5.769-7.006,9.208-12.951,10.532
		c-6.03,1.344-8.564-1.009-8.53-7.208C411.246,91.823,416.52,83.209,421.94,81.757z"/>
	<path fill-rule="evenodd" clip-rule="evenodd" d="M307.467,57.771c-0.091,1.773-0.181,3.532-0.301,5.893
		c3.077,0.513,5.926,1.16,8.811,1.435c7.58,0.723,15.176,1.292,22.767,1.899c1.159,0.092,2.354,0.223,3.489,0.055
		c7.061-1.047,8.307,0.254,8.935,7.421c1.183,13.495,2.585,26.978,4.233,40.424c1.029,8.393,4.492,15.979,9.269,21.563
		c1.116,0.496,2.072,1.178,2.88,1.985h4.903c0.036-0.994,0.188-1.98,0.457-2.932c0.169-3.681,0.739-7.447-0.061-10.896
		c-1.874-8.077-4.571-15.972-7.096-23.888c-3.239-10.156-3.086-20.568-2.388-30.984c0.232-3.47,5.271-5.959,10.474-6.345
		c4.987-0.37,9.993-0.944,14.89-1.932c3.98-0.802,4.778-3.903,3.961-8.007C364.376,54.894,336.111,56.322,307.467,57.771z"/>
	<path fill-rule="evenodd" clip-rule="evenodd" d="M181.023,115.73c-6.845-7.377-6.905-9.542-2.992-18.716
		c3.617-8.481,8.054-16.955,6.969-26.669c-1.512-13.54-5.74-25.933-16.686-34.93c-2.259-1.857-5.063-3.053-8.172-4.676
		c-0.421-0.187-0.815-0.404-1.192-0.64c-0.079-0.044-0.156-0.083-0.235-0.127h0.047c-0.203-0.134-0.406-0.269-0.597-0.417
		c-4.237,0-8.476,0-12.714-0.001c-1.047,0.656-2.266,1.129-3.651,1.373c-11.219,3.344-18.72,10.717-24.575,20.145
		c-9.756,15.705-13.584,32.815-12.104,51.184c1.42,17.596,16.196,30.008,34.674,23.417c7.293-2.603,14.487-5.504,21.855-7.862
		c3.096-0.991,5.929-0.962,8.472,2.764c3.808,5.577,8.856,10.313,14.246,16.355c0.856,0.404,1.616,0.918,2.284,1.515h1.24
		c0.204-0.525,0.44-1.036,0.721-1.522h-0.055C192.039,127.925,186.611,121.753,181.023,115.73z M172.933,90.508
		c-0.63,2.542-3.192,5.479-5.604,6.507c-3.93,1.676-5.857-2.356-7.825-4.904c-1.761-2.28-2.824-5.088-4.438-7.5
		c-0.838-1.253-2.104-2.894-3.349-3.06c-2.516-0.335-5.149,0.217-7.735,0.402c0.686,2.332,0.907,4.954,2.149,6.937
		c3.046,4.862,6.78,9.297,9.768,14.191c0.983,1.612,1.44,4.652,0.574,6.107c-5.308,8.915-30.225,10.772-37.392,3.122
		c-4.666-4.981-3.941-11.122-4.227-17.19c1.176-18.27,6.718-34.822,20.042-47.968c15.426-15.219,34.342-5.595,38.616,12.538
		C175.998,70.23,175.447,80.362,172.933,90.508z"/>
	<path fill-rule="evenodd" clip-rule="evenodd" d="M241.607,66.542c-1.584-0.312-4.643,0.291-4.924,1.161
		c-0.908,2.811-1.689,6.154-0.992,8.903c2.549,10.035,2.714,19.919-0.353,29.789c-1.139,3.664-2.521,7.283-4.139,10.762
		c-3.213,6.91-13.72,10.785-19.77,0.926c-6.897-11.242-8.26-23.524-5.139-36.396c0.485-2.005-0.172-4.558-1.066-6.504
		c-0.412-0.896-3.446-1.731-3.954-1.233c-1.73,1.7-3.941,3.956-4.039,6.089c-0.38,8.297-0.813,16.734,0.273,24.921
		c1.322,9.947,3.698,19.913,11.587,27.243c1.711,1.59,3.759,2.819,6.338,4.72h-0.396c0.706,0.432,1.329,0.948,1.884,1.522h6.43
		c0.675-0.627,1.454-1.159,2.328-1.585h-0.09c12.848-5.886,17.846-16.322,19.539-27.92c1.734-11.87,1.57-24.025,2.063-36.063
		C247.336,69.263,244.83,67.177,241.607,66.542z"/>
	<path fill-rule="evenodd" clip-rule="evenodd" d="M289.543,126.703c-7.305,1.519-13.969-0.357-20.034-4.39
		c-1.146-0.762-1.636-2.511-2.006-3.114c6.254-2.094,12.72-3.053,17.821-6.213c11.307-7.005,18.978-23.103,9.747-35.451
		c-2.241-2.999-6.582-5.569-10.294-6.137c-18.679-2.855-28.74,12.006-29.529,26.278c-0.375,6.78,0.088,13.865,1.701,20.437
		c2.453,9.98,9.714,15.503,19.457,18.427c1.891,0.259,3.49,0.93,4.779,1.905h12.289c1.606-1.607,3.827-2.689,6.658-2.867
		c2.209-0.551,4.405-1.119,6.201-2.298c2.058-1.352,3.026-4.362,4.479-6.636c-2.597-1.016-5.257-3-7.778-2.837
		C298.495,124.101,294.056,125.765,289.543,126.703z M279.869,81.298c5.482-0.247,10.379,5.759,9.031,11.076
		c-1.559,6.15-8.079,11.867-14.518,12.728c-5.351,0.715-7.378-1.345-7.311-7.426C267.161,89.694,273.498,81.585,279.869,81.298z"/>
	<path fill-rule="evenodd" clip-rule="evenodd" d="M563.756,123.898c-4.528,0.444-8.905,2.247-13.427,2.985
		c-6.544,1.068-12.802-0.367-18.422-3.801c-1.454-0.889-2.153-3.015-4.063-5.857c9.286,1.17,15.777-1.272,21.544-6.019
		c9.899-8.148,13.463-21.765,7.756-32.914c-4.837-9.447-21.204-8.938-28.269-3.467c-7.161,5.545-10.384,12.707-12.3,21.56
		c-2.282,10.545-0.593,19.74,4.651,28.611c3.728,6.306,9.947,9.294,16.702,11.968h-0.447c0.938,0.379,1.77,0.881,2.499,1.48h15.856
		c0.896-0.679,1.946-1.207,3.134-1.559c-0.041-0.147-0.082-0.295-0.123-0.442c3.014-1.033,6.061-1.983,9.034-3.121
		c3.365-1.289,4.819-4.399,3.07-7.026C569.818,124.591,566.145,123.665,563.756,123.898z M539.9,81.413
		c6.145-1.343,10.189,2.871,9.461,9.792c-0.073,7.702-8.833,15.164-16.578,13.864c-1.337-0.225-2.857-1.512-3.605-2.73
		C525.086,95.67,532.732,82.981,539.9,81.413z"/>
	<path fill-rule="evenodd" clip-rule="evenodd" d="M478.662,134.749c-2.341-5.929-5.188-12.294-7.37-18.879
		c-2.8-8.451-5.302-17.02-7.489-25.649c-1.888-7.444-3.354-15.013-4.614-22.591c-0.617-3.707-1.175-7.765-0.303-11.306
		c1.774-7.207,8.065-9.657,14.544-10.885c4.045-0.767,8.295-0.392,12.443-0.666c13.311-0.881,21.232,8.234,23.54,18.262
		c5.316,23.106-0.003,43.907-13.673,62.898C491.907,131.258,486.615,133.935,478.662,134.749z M502.212,79.144
		c-1.046-5.447-1.526-11.086-3.28-16.296c-2.322-6.896-9.037-9.101-20.138-7.622c-9.302,1.238-12.507,4.516-11.211,13.691
		c1.367,9.68,3.224,19.422,6.241,28.688c1.924,5.91,6.209,11.098,9.713,16.426c1.496,2.275,3.732,2.507,5.527-0.008
		C496.484,103.632,502.742,92.818,502.212,79.144z"/>
	<path fill-rule="evenodd" clip-rule="evenodd" d="M742.682,107.369c3.174-8.47,8.204-15.145,17.033-18.368
		c7.893-2.882,17.793,0.297,21.307,8.233c2.908,6.567,4.675,13.766,6.009,20.86c0.901,4.792,0.172,9.892,0.172,15.271
		c-2.368,0-4.771,0-7.483,0c-0.815-4.616-1.477-9.466-2.566-14.218c-1.16-5.059-2.094-10.336-4.35-14.916
		c-1.378-2.795-5.33-6.433-7.643-6.12c-2.856,0.386-6.48,4.037-7.537,7.059c-2.779,7.95-4.275,16.343-6.453,24.514
		c-0.499,1.873-1.324,4.622-2.644,5.07c-1.679,0.57-4.231-0.399-6.024-1.395c-5.409-3.005-6.728-8.889-8.431-14.06
		c-2.281-6.927-3.654-14.18-5.017-21.368c-0.484-2.558,0.512-4.907,4.076-4.822c2.562,0.062,3.655,0.735,4.161,3.575
		c0.673,3.78,2.397,7.373,3.67,11.046C741.535,107.61,742.108,107.489,742.682,107.369z"/>
	<path fill-rule="evenodd" clip-rule="evenodd" d="M266.379,65.513c1.662-2.802,2.985-5.514,4.752-7.897
		c2.449-3.304,5.045-6.553,7.99-9.4c0.813-0.786,3.193-0.357,4.628,0.152c0.415,0.147,0.555,2.835-0.056,3.81
		c-3.284,5.244-6.712,10.416-10.416,15.369c-0.803,1.074-2.975,1.615-4.447,1.503C268.031,68.988,267.376,67.034,266.379,65.513z"/>
	<path fill-rule="evenodd" clip-rule="evenodd" d="M644.977,63.025c-2.408-2.559-5.506-4.673-5.18-5.748
		c0.673-2.215,3.174-3.875,4.922-5.765c1.959,2.135,3.917,4.27,5.876,6.404C649.043,59.328,647.49,60.739,644.977,63.025z"/>
	<path fill-rule="evenodd" clip-rule="evenodd" d="M82.792,115.409c0.138,2.982,0.296,5.618,0.372,8.255
		c0.1,3.41-0.304,6.807-4.229,7.8c-4.814,1.218-6.01-2.807-7.573-5.985c-0.842-1.71-0.995-4.046-2.273-5.181
		c-1.478-1.312-4.001-2.456-5.802-2.141c-2.378,0.417-4.352,2.001-4.066,5.509c0.332,4.068,0.953,9.112-5.188,9.854
		c-1.465,0.178-3.572-0.692-4.565-1.81c-1.784-2.006-2.98-4.544-4.363-6.895c-2.099-3.569-4.778-5.836-9.327-5.572
		c-4.016,0.233-7.711-0.915-10.87-5.384c4.324-1.621,8.257-2.891,11.983-4.607c1.245-0.573,2.394-2.161,2.801-3.521
		c0.391-1.308-0.373-2.919-0.384-4.399c-0.032-4.146-0.734-6.943-5.929-4.412c-1.512,0.736-3.609,0.357-5.438,0.336
		c-3.227-0.037-6.436-0.302-7.036-4.447c-0.436-3.013,2.887-7.092,6.462-7.346c3.787-0.27,7.706-0.296,11.41,0.402
		c3.171,0.598,4.119-0.256,4.443-3.19c0.524-4.74,1.109-9.495,2.119-14.146c0.277-1.274,1.997-2.75,3.347-3.151
		c1.821-0.542,3.925-0.135,6.067-0.135c0.617,5.978,1.234,11.952,1.832,17.743c3.387,0,5.659,0,7.592,0
		c1.042-5.49,1.938-10.639,3.041-15.742c0.299-1.386,0.891-3.119,1.936-3.837c1.568-1.076,3.712-1.977,5.498-1.803
		c0.968,0.095,2.34,2.531,2.428,3.979c0.302,4.956,0.116,9.942,0.116,14.957c6.852,1.597,13.333,3.062,19.789,4.632
		c3.132,0.762,3.358,2.622,0.884,4.294c-2.327,1.571-4.996,2.747-7.66,3.678c-2.756,0.963-5.904,0.993-8.457,2.274
		c-1.348,0.678-2.502,3.196-2.4,4.799c0.068,1.089,2.389,2.734,3.841,2.896c3.445,0.386,7.054-0.432,10.434,0.164
		c1.949,0.344,3.58,2.492,5.354,3.828c-1.26,1.444-2.246,3.527-3.833,4.208C91.166,113.018,86.914,114.089,82.792,115.409z
		 M60.72,106.909c2.608-2.418,4.486-4.157,6.363-5.897c-1.741-1.854-3.482-3.708-5.224-5.562c-2.148,2.116-4.297,4.232-6.444,6.35
		C56.87,103.2,58.324,104.602,60.72,106.909z"/>
</g>
</svg>
