<?xml version="1.0" encoding="utf-8"?>
<!-- Generator: Adobe Illustrator 16.0.0, SVG Export Plug-In . SVG Version: 6.00 Build 0)  -->
<!DOCTYPE svg PUBLIC "-//W3C//DTD SVG 1.1//EN" "http://www.w3.org/Graphics/SVG/1.1/DTD/svg11.dtd">
<svg version="1.1" id="Capa_1" xmlns="http://www.w3.org/2000/svg" xmlns:xlink="http://www.w3.org/1999/xlink" x="0px" y="0px"
	 width="226.473px" height="34.395px" viewBox="0 0 226.473 34.395" enable-background="new 0 0 226.473 34.395"
	 xml:space="preserve">
<g>
	<path fill="#FAC415" d="M7.88,5.752C12.162,5.2,24.309,4.819,20.98,22.372l3.775-0.307C23.103,11.246,26.561,5.729,37.376,5.2
		C19.438-4.733,9.226,5.579,7.88,5.752z"/>
	<path fill="#FFFFFF" d="M24.579,19.593c1.967,5.322,7.877,8.043,13.2,6.076c5.323-1.968,8.044-7.878,6.076-13.201
		c-1.967-5.322-7.876-8.042-13.198-6.077C25.334,8.359,22.613,14.269,24.579,19.593z"/>
	<circle fill="#FFFFFF" cx="11.438" cy="15.99" r="10.278"/>
	<circle fill="#EE6946" cx="11.29" cy="15.889" r="1.9"/>
	<circle fill="#00AF87" cx="34.193" cy="15.889" r="1.899"/>
	<path d="M43.391,9.222c0.479-1.642,1.238-3.188,2.247-4.57l-7.627-0.006c-4.561-2.855-9.853-4.325-15.233-4.229
		C17.266,0.3,11.838,1.788,7.157,4.7L0,4.705c1,1.371,1.757,2.903,2.237,4.53c-3.738,5.078-2.652,12.224,2.426,15.962
		c4.936,3.634,11.858,2.722,15.686-2.064l2.433,3.641l2.455-3.672c3.893,4.968,11.074,5.84,16.042,1.947
		C46.162,21.221,47.1,14.196,43.391,9.222z M33.854,4.615c-5.835,0.169-10.598,4.723-11.028,10.544
		C22.392,9.281,17.561,4.696,11.667,4.57c3.521-1.462,7.3-2.197,11.11-2.16C26.584,2.353,30.359,3.104,33.854,4.615z M11.438,25.11
		c-5.038,0.001-9.123-4.083-9.123-9.121c-0.001-5.038,4.083-9.122,9.121-9.123s9.122,4.083,9.123,9.121c0,0.002,0,0.002,0,0.004
		C20.553,21.025,16.473,25.104,11.438,25.11z M37.378,24.593c-4.727,1.742-9.972-0.674-11.718-5.398v-0.003
		c-1.743-4.727,0.675-9.972,5.402-11.715c4.727-1.743,9.972,0.676,11.715,5.403C44.521,17.604,42.104,22.849,37.378,24.593
		L37.378,24.593z"/>
	<path d="M11.297,10.245c-3.117-0.004-5.648,2.519-5.652,5.636c-0.005,3.118,2.519,5.649,5.636,5.653
		c3.118,0.005,5.648-2.519,5.653-5.636c0-0.003,0-0.006,0-0.009C16.929,12.777,14.409,10.254,11.297,10.245z M11.297,19.591
		c-2.044,0.004-3.703-1.65-3.708-3.694c-0.004-2.043,1.65-3.704,3.693-3.708c2.044-0.004,3.704,1.649,3.708,3.693
		c0,0.002,0,0.004,0,0.007C14.986,17.928,13.336,19.581,11.297,19.591z"/>
	<path d="M34.193,10.245c-3.118-0.001-5.646,2.524-5.648,5.642c-0.001,3.118,2.524,5.646,5.643,5.647
		c3.117,0.002,5.646-2.523,5.647-5.642c0-0.001,0-0.002,0-0.004C39.83,12.774,37.308,10.25,34.193,10.245z M34.193,19.591
		c-2.044,0-3.702-1.656-3.702-3.7c-0.001-2.043,1.655-3.701,3.699-3.702c2.044-0.001,3.701,1.655,3.702,3.699c0,0,0,0,0,0.001
		C37.89,17.931,36.235,19.587,34.193,19.591z"/>
	<path fill="#FFFFFF" d="M162.09,3.363c0.001,1.215,0.986,2.199,2.202,2.198c1.215,0,2.199-0.986,2.198-2.202
		c-0.001-1.214-0.985-2.198-2.2-2.199C163.075,1.163,162.091,2.148,162.09,3.363z"/>
	<path d="M57.585,3.21l-3.333,1.148v4.354h-3.697v2.918h3.591v9.37c0,4.461,1.521,6.277,5.246,6.277
		c0.93,0.004,1.856-0.118,2.755-0.361l0.146-0.039l-0.041-3.023l-0.257,0.09c-0.558,0.223-1.148,0.353-1.749,0.383
		c-1.749,0-2.4-0.988-2.4-3.646v-9.05h4.269V8.713h-4.269V3.121L57.585,3.21z"/>
	<path d="M69.121,11.668V8.713h-3.38V26.96h3.698v-9.159c0-3.842,1.611-5.957,4.536-5.957c0.452,0.004,0.9,0.073,1.332,0.206
		l0.243,0.068l0.119-3.604l-1.59-0.122C71.924,8.405,69.979,9.69,69.121,11.668z"/>
	<path d="M95.525,8.285c-2.486-0.019-4.801,1.269-6.097,3.391V8.713h-3.381v25.682h3.701v-9.958
		c1.297,1.813,3.409,2.863,5.637,2.806c4.679,0,7.7-3.831,7.7-9.762C103.086,11.98,100.049,8.285,95.525,8.285z M94.497,24.255
		c-2.928,0-4.748-2.5-4.748-6.526c0-3.877,1.92-6.383,4.89-6.383c2.861,0,4.568,2.373,4.568,6.349
		C99.207,21.741,97.402,24.255,94.497,24.255L94.497,24.255z"/>
	<path fill="#FFFFFF" d="M113.896,8.285c-2.093-0.036-4.166,0.409-6.06,1.301l-0.114,0.053l0.042,3.158l0.288-0.162
		c1.476-0.898,3.157-1.403,4.884-1.468c2.678,0,4.214,1.536,4.214,4.214v0.157h-2.115c-6.091,0-9.443,2.206-9.443,6.209
		c0,3.214,2.418,5.459,5.886,5.459c2.331,0.088,4.553-0.996,5.92-2.887v2.639h3.348V15.914
		C120.744,10.852,118.44,8.285,113.896,8.285z M117.149,19.259c0,3.146-1.892,5.174-4.82,5.174
		c-1.557,0.117-2.914-1.049-3.032-2.605c-0.007-0.086-0.009-0.172-0.008-0.258c0-2.213,2.115-3.431,5.957-3.431h1.903V19.259
		L117.149,19.259z"/>
	<path fill="#FFFFFF" d="M136.461,0v11.19c-1.283-1.878-3.435-2.973-5.708-2.905c-4.52,0-7.557,3.724-7.557,9.266
		c0,5.707,3.078,9.691,7.486,9.691c2.493,0.063,4.82-1.245,6.063-3.407v3.125h3.416V0H136.461L136.461,0z M131.646,24.183
		c-2.82,0-4.572-2.459-4.572-6.418c0-3.964,1.767-6.525,4.499-6.525c3.063,0,4.889,2.44,4.889,6.525
		C136.461,21.665,134.57,24.183,131.646,24.183z"/>
	<path fill="#FFFFFF" d="M156.696,8.713l-5.25,10.531l-4.848-10.531h-4.17l8.943,18.247l9.188-18.247H156.696z"/>
	<path fill="#FFFFFF" d="M165.951,8.713h-3.506V26.96h3.702V8.713H165.951z"/>
	<path fill="#FFFFFF" d="M170.484,13.391c0,2.569,1.766,3.919,5.019,5.508c2.055,1.011,3.129,1.604,3.129,3.027
		c0,1.455-1.321,2.4-3.362,2.4c-1.618-0.041-3.206-0.449-4.645-1.191l-0.271-0.131l-0.124,3.215l0.13,0.053
		c1.518,0.598,3.136,0.902,4.767,0.9c4.525,0,7.451-2.156,7.451-5.495c0-2.786-1.854-4.195-5.057-5.692
		c-2.352-1.1-3.335-1.748-3.335-2.915c0-1.114,1.094-1.831,2.789-1.831c1.535,0.001,3.05,0.348,4.434,1.013l0.264,0.126l0.168-3.151
		l-0.149-0.046c-1.46-0.441-2.977-0.671-4.502-0.682C173.179,8.499,170.484,10.464,170.484,13.391z"/>
	<path fill="#FFFFFF" d="M194.117,8.285c-5.561,0-9.015,3.66-9.015,9.552c0,5.891,3.454,9.551,9.015,9.551
		c5.585,0,9.056-3.66,9.056-9.551C203.173,11.945,199.702,8.285,194.117,8.285z M194.153,24.363c-3.071,0-5.138-2.64-5.138-6.563
		c0-3.945,2.066-6.597,5.138-6.597c3.124,0,5.141,2.587,5.141,6.597C199.294,21.786,197.277,24.363,194.153,24.363z"/>
	<path fill="#FFFFFF" d="M209.999,11.668V8.713h-3.379V26.96h3.699v-9.159c0-3.842,1.613-5.957,4.535-5.957
		c0.451,0.003,0.9,0.073,1.332,0.206l0.243,0.068l0.121-3.604l-1.59-0.122C212.804,8.405,210.858,9.69,209.999,11.668z"/>
	<path d="M82.266,8.713H78.76V26.96h3.701V8.713H82.266L82.266,8.713z"/>
	<path d="M78.402,3.363c0.001,1.215,0.986,2.2,2.202,2.2c1.215,0,2.2-0.986,2.199-2.202c0-1.215-0.985-2.2-2.2-2.2
		C79.389,1.163,78.404,2.148,78.402,3.363z"/>
	<g>
		<path fill="#FFFFFF" d="M225.548,6.134c0.604,0.617,0.937,1.449,0.925,2.312c0.014,0.884-0.342,1.733-0.979,2.345
			c-0.622,0.611-1.457,0.957-2.329,0.962c-0.887,0-1.735-0.364-2.347-1.007c-0.607-0.612-0.949-1.438-0.95-2.3
			c0.003-0.895,0.364-1.751,1.004-2.376c0.608-0.606,1.435-0.942,2.293-0.934C224.063,5.125,224.925,5.487,225.548,6.134z
			 M221.289,6.497c-0.521,0.515-0.814,1.217-0.813,1.95c0.011,1.482,1.207,2.682,2.688,2.699c0.715-0.001,1.401-0.28,1.914-0.779
			c1.05-1.05,1.065-2.747,0.035-3.816c-0.507-0.525-1.208-0.82-1.938-0.816C222.47,5.724,221.789,5.999,221.289,6.497L221.289,6.497
			z M223.229,6.559c1.042,0,1.568,0.373,1.568,1.052c0.006,0.467-0.315,0.875-0.771,0.979l0.805,1.594h-1.095l-0.68-1.439h-0.292
			v1.439h-0.995V6.559H223.229L223.229,6.559z M222.765,8.155h0.356c0.435,0,0.65-0.154,0.65-0.471c0-0.353-0.226-0.498-0.705-0.498
			h-0.302V8.155L222.765,8.155z"/>
	</g>
</g>
</svg>
