<?xml version="1.0" encoding="utf-8"?>
<!-- Generator: Adobe Illustrator 16.0.0, SVG Export Plug-In . SVG Version: 6.00 Build 0)  -->
<!DOCTYPE svg PUBLIC "-//W3C//DTD SVG 1.1//EN" "http://www.w3.org/Graphics/SVG/1.1/DTD/svg11.dtd">
<svg version="1.1" id="Capa_1" xmlns="http://www.w3.org/2000/svg" xmlns:xlink="http://www.w3.org/1999/xlink" x="0px" y="0px"
	 width="290.984px" height="239.987px" viewBox="0 0 290.984 239.987" enable-background="new 0 0 290.984 239.987"
	 xml:space="preserve">
<g>
	<path fill="#14788B" d="M200.225,45.334c-45.238,0-81.902,36.692-81.902,81.918s36.664,81.905,81.902,81.905
		c45.244,0,81.906-36.68,81.906-81.905S245.469,45.334,200.225,45.334 M256.459,99.552c-2.371,2.921-5.082,5.491-8.119,7.729
		c-0.271,0.206-0.396,0.376-0.383,0.708c0.127,3.31-0.014,6.64-0.422,9.923c-0.848,6.946-2.775,13.579-5.752,19.915
		c-3.072,6.521-7.061,12.438-12.076,17.623c-8.521,8.812-18.773,14.482-30.762,17.127c-4.082,0.9-8.252,1.374-12.451,1.484
		c-12.885,0.376-24.807-2.836-35.775-9.591c-0.137-0.095-0.262-0.196-0.527-0.357c7.799,0.846,15.221-0.171,22.377-3.088
		c3.781-1.559,7.309-3.59,10.633-6.2c-11.619-0.402-18.889-8.726-20.805-15.524c3.223,0.624,6.406,0.488,9.574-0.277
		c0.084-0.014,0.166-0.07,0.32-0.153c-6.285-1.455-11.133-4.839-14.527-10.256c-2.234-3.601-3.305-7.544-3.277-11.896
		c3.156,1.677,6.436,2.623,9.965,2.708c-4.742-3.405-7.91-7.854-9.201-13.549c-1.307-5.702-0.459-11.108,2.393-16.219
		c12.119,14.283,27.434,22.098,46.111,23.36c-0.109-0.876-0.262-1.654-0.346-2.431c-0.609-5.257,0.434-10.162,3.256-14.623
		c3.561-5.587,8.656-9.062,15.178-10.103c7.533-1.238,14.092,0.915,19.564,6.24c0.391,0.348,0.693,0.458,1.211,0.348
		c4.586-0.99,8.922-2.666,13.006-5.005c0.104-0.04,0.186-0.099,0.295-0.151c0.016-0.014,0.061-0.014,0.141-0.014
		c-1.764,5.198-4.977,9.213-9.578,12.171c4.35-0.474,8.479-1.639,12.451-3.361c0.045,0.056,0.076,0.068,0.104,0.098
		C258.172,97.329,257.352,98.47,256.459,99.552"/>
	<path fill="#14788B" d="M38.116,109.157c-0.127-3.238,1.25-6.228,3.584-7.77c2.389-1.573,5.047-2.655,8.158-3.324
		c5.17-1.097,10.605-0.791,15.83-0.473c1.695,0.086,3.295,0.17,4.867,0.211c0.887,0.025,1.902,0.04,2.988,0.04
		c7.518,0.029,17.828,0.06,22.195,6.271c1.193,1.705,1.264,3.707,0.18,5.487c-1.918,3.253-5.725,5.451-11.633,6.699
		c-3.531,0.753-7.281,1.071-10.285,1.322c-1.055,0.097-2.043,0.167-2.918,0.267c-1.525,0.162-3.07,0.383-4.701,0.598
		c-7.725,1.056-16.479,2.232-24.123-1.965C39.797,115.162,38.241,112.406,38.116,109.157 M85.02,40.095
		c0.07-2.641,1.172-5.127,3.031-6.825c1.127-1.04,2.5-1.778,3.975-2.142c3.295-0.857,6.869,0.17,9.283,2.658
		c2.031,2.084,5.617,6.042,9.092,9.883c3.434,3.803,6.975,7.74,8.922,9.727c1.668,1.71,2.545,4.047,2.459,6.559
		c-0.066,2.6-1.152,5.033-2.986,6.729c-1.137,1.012-2.445,1.735-3.934,2.112c-3.238,0.85-6.783-0.181-9.27-2.681L87.549,46.653
		C85.856,44.961,84.965,42.623,85.02,40.095 M79.616,159.553l15.914-6.03c0.961-0.362,1.986-0.559,3.043-0.559
		c3.947,0,7.631,2.597,8.912,6.326c1.639,4.763-0.879,9.978-5.703,11.854l-15.855,6.168c-0.973,0.377-2.027,0.572-3.1,0.572
		c-3.922,0-7.699-2.67-8.979-6.377C72.167,166.653,74.709,161.402,79.616,159.553"/>
</g>
</svg>
