<?xml version="1.0" encoding="utf-8"?>
<!-- Generator: Adobe Illustrator 16.0.0, SVG Export Plug-In . SVG Version: 6.00 Build 0)  -->
<!DOCTYPE svg PUBLIC "-//W3C//DTD SVG 1.1//EN" "http://www.w3.org/Graphics/SVG/1.1/DTD/svg11.dtd">
<svg version="1.1" id="Capa_1" xmlns="http://www.w3.org/2000/svg" xmlns:xlink="http://www.w3.org/1999/xlink" x="0px" y="0px"
	 width="290.984px" height="239.987px" viewBox="0 0 290.984 239.987" enable-background="new 0 0 290.984 239.987"
	 xml:space="preserve">
<g>
	<path fill="#14788B" d="M23.485,109.155c-0.125-3.235,1.256-6.227,3.592-7.771c2.393-1.569,5.059-2.65,8.16-3.323
		c5.17-1.094,10.598-0.79,15.842-0.469c1.684,0.085,3.279,0.166,4.852,0.211c0.887,0.022,1.898,0.037,2.984,0.037
		c7.518,0.028,17.836,0.059,22.193,6.27c1.195,1.71,1.271,3.712,0.199,5.487c-1.934,3.258-5.732,5.45-11.631,6.7
		c-3.547,0.752-7.283,1.071-10.289,1.321c-1.057,0.096-2.053,0.17-2.934,0.267c-1.527,0.165-3.072,0.387-4.695,0.599
		c-7.725,1.056-16.484,2.237-24.129-1.962C25.171,115.161,23.61,112.409,23.485,109.155 M70.407,40.092
		c0.059-2.636,1.158-5.125,3.02-6.824c1.123-1.04,2.504-1.776,3.975-2.138c3.293-0.86,6.869,0.167,9.283,2.655
		c2.031,2.082,5.613,6.045,9.092,9.883c3.436,3.807,6.965,7.739,8.92,9.727c1.67,1.712,2.543,4.046,2.477,6.561
		c-0.08,2.596-1.168,5.034-3.006,6.727c-1.123,1.014-2.445,1.738-3.93,2.111c-3.242,0.85-6.773-0.178-9.254-2.682L72.925,46.654
		C71.228,44.959,70.341,42.626,70.407,40.092 M64.993,159.556l15.908-6.035c0.961-0.361,1.988-0.553,3.043-0.553
		c3.951,0,7.631,2.596,8.914,6.321c1.656,4.763-0.863,9.978-5.701,11.853L71.3,177.317c-0.975,0.372-2.016,0.568-3.086,0.568
		c-3.93,0-7.711-2.671-8.99-6.381C57.556,166.651,60.067,161.401,64.993,159.556"/>
	<path fill-rule="evenodd" clip-rule="evenodd" fill="#14788B" d="M185.601,45.336c-45.223,0-81.893,36.677-81.893,81.929
		c0,45.214,36.67,81.892,81.893,81.892c45.236,0,81.906-36.678,81.906-81.892C267.507,82.013,230.837,45.336,185.601,45.336
		 M159.417,165.515V92.184c23.473,12.274,46.826,24.438,70.475,36.779C206.265,141.209,182.935,153.3,159.417,165.515"/>
</g>
</svg>
